<svg width="320" height="320" viewBox="0 0 320 320" fill="none" xmlns="http://www.w3.org/2000/svg">
<path d="M156.847 168.528V250.177C156.847 256.61 154.834 260.965 150.842 263.241C146.851 265.518 142.034 265.056 136.426 261.79L126.232 255.918C120.624 252.685 115.807 247.604 111.816 240.709C107.824 233.815 105.844 227.15 105.844 220.717V191.456C105.844 190.004 105.713 188.519 105.416 187.035C104.822 183.571 103.436 180.041 101.358 176.445C98.3888 171.299 94.7929 167.505 90.5372 165.064L80.3104 159.159C76.0878 156.718 72.4589 156.321 69.4898 158.037C66.5208 159.719 65.0362 163.018 65.0362 167.901V197.163C65.0362 203.596 63.0239 207.95 59.0321 210.227C55.0403 212.503 50.2239 212.041 44.6156 208.775L34.4218 202.903C28.8135 199.67 23.9971 194.59 20.0053 187.695C16.0136 180.8 14.001 174.136 14.001 167.703V86.0534C14.001 82.1607 14.76 78.9936 16.3105 76.5524C17.3991 74.771 18.8505 73.4844 20.5989 72.6926L20.764 72.6266C21.3578 72.3627 22.0175 72.1648 22.6773 72.0328L73.6795 59.629C75.5599 59.1342 77.4733 59.1338 79.4197 59.5627C79.6177 59.5957 79.7823 59.662 79.9802 59.728C81.7617 60.1898 83.5764 60.9483 85.4238 62.0039C87.4692 63.1916 89.4486 64.6761 91.428 66.4905C93.3744 68.305 95.2878 70.5483 97.1682 73.1875L134.644 125.575L148.17 144.478C150.875 148.206 153.02 152.165 154.537 156.354C156.088 160.544 156.847 164.602 156.847 168.528Z" fill="#208501" stroke="#38F100" stroke-width="1.64948" stroke-linecap="round" stroke-linejoin="round"/>
<path d="M158.564 130.325L115.512 70.0196C113.301 66.7866 111.52 63.4216 110.167 59.8918C108.815 56.3948 108.122 53.2608 108.122 50.5227C108.122 45.6402 109.475 42.5722 112.213 41.3186L142.332 26.2754L147.182 57.2856L158.564 130.325Z" fill="#208501" stroke="#38F100" stroke-width="1.64948" stroke-linecap="round" stroke-linejoin="round"/>
<path d="M182.283 218.045L177.269 220.519C177.335 219.2 177.862 218.276 178.786 217.748C179.808 217.187 180.963 217.286 182.283 218.045Z" fill="#208501" stroke="#38F100" stroke-width="1.64948" stroke-linecap="round" stroke-linejoin="round"/>
<path d="M197.655 185.913V197.625C197.655 199.208 197.127 200.264 196.137 200.858C195.115 201.419 193.927 201.32 192.541 200.528L182.348 194.656C180.995 193.864 179.807 192.61 178.785 190.829C177.927 189.344 177.399 187.926 177.3 186.606L193.993 178.26C194.785 178.92 195.477 179.843 196.137 180.932C197.127 182.713 197.655 184.363 197.655 185.913Z" fill="white" stroke="#38F100" stroke-width="1.64948" stroke-linecap="round" stroke-linejoin="round"/>
<path d="M197.656 232.758V244.469C197.656 246.02 197.128 247.108 196.138 247.669C195.116 248.263 193.928 248.164 192.542 247.372L187.924 244.7L182.349 241.467C180.996 240.708 179.808 239.422 178.786 237.673C177.862 236.09 177.335 234.572 177.269 233.187L193.829 224.906C194.687 225.632 195.446 226.589 196.138 227.776C197.128 229.525 197.656 231.207 197.656 232.758Z" fill="white" stroke="#38F100" stroke-width="1.64948" stroke-linecap="round" stroke-linejoin="round"/>
<path d="M105.417 187.034L59.0332 210.226C63.025 207.95 65.0377 203.595 65.0377 197.162V167.9C65.0377 163.018 66.5222 159.719 69.4913 158.036C72.4603 156.321 76.0892 156.717 80.3119 159.158L90.5387 165.063C94.7944 167.504 98.3902 171.298 101.359 176.444C103.438 180.04 104.823 183.57 105.417 187.034Z" fill="white" stroke="#38F100" stroke-width="1.64948" stroke-linecap="round" stroke-linejoin="round"/>
<path d="M232.461 113.402C228.469 106.507 223.685 101.427 218.044 98.1935L195.215 85.0306L147.182 57.2863L123.166 43.4306C118.58 40.7585 114.918 40.0657 112.213 41.3193C109.475 42.5729 108.122 45.641 108.122 50.5234C108.122 53.2616 108.815 56.3956 110.167 59.8925C111.52 63.4224 113.301 66.7873 115.512 70.0203L158.564 130.325L168.823 144.709C171.561 148.404 173.64 152.363 175.091 156.519C176.51 160.643 177.236 164.668 177.236 168.594V173.839H177.269C177.269 172.42 177.83 171.497 178.786 170.936C179.809 170.342 180.996 170.441 182.349 171.233H182.382L192.543 177.138C193.071 177.435 193.532 177.798 193.994 178.26C194.786 178.919 195.479 179.843 196.139 180.932C197.129 182.713 197.656 184.363 197.656 185.913V197.624C197.656 199.208 197.129 200.264 196.139 200.857C195.116 201.418 193.928 201.319 192.543 200.528L182.349 194.655C180.996 193.864 179.809 192.61 178.786 190.829C177.929 189.344 177.4 187.926 177.301 186.606H177.236V220.552H177.269C177.335 219.2 177.863 218.276 178.786 217.748C179.809 217.187 180.963 217.286 182.283 218.045C182.283 218.045 182.283 218.045 182.349 218.045L192.543 223.917C193.005 224.181 193.433 224.478 193.829 224.874C194.687 225.6 195.446 226.556 196.139 227.744C197.129 229.493 197.656 231.175 197.656 232.726V244.437C197.656 245.987 197.129 247.076 196.139 247.637C195.116 248.231 193.928 248.132 192.543 247.34L187.924 244.668L182.349 241.435C180.996 240.676 179.809 239.389 178.786 237.641C177.863 236.057 177.335 234.54 177.269 233.154H177.236V273.633C177.236 276.932 178.225 280.297 180.172 283.662C182.151 287.027 184.56 289.567 187.463 291.216L218.044 308.899C223.685 312.132 228.469 312.627 232.461 310.317C236.452 308.041 238.464 303.686 238.464 297.253V133.361C238.464 126.928 236.452 120.264 232.461 113.369V113.402ZM197.656 150.812C197.656 152.363 197.129 153.451 196.139 154.012C195.116 154.606 193.928 154.507 192.543 153.715L182.349 147.81C180.996 147.051 179.809 145.765 178.786 144.016C177.764 142.235 177.236 140.585 177.236 139.035V127.323C177.236 125.773 177.764 124.684 178.786 124.09C179.809 123.53 180.996 123.629 182.349 124.42L192.543 130.293C193.928 131.084 195.116 132.371 196.139 134.119C197.129 135.868 197.656 137.55 197.656 139.101V150.812Z" fill="#208501" stroke="#38F100" stroke-width="1.64948" stroke-linecap="round" stroke-linejoin="round"/>
<path d="M182.382 171.265L177.269 173.806C177.269 172.42 177.829 171.496 178.786 170.935C179.808 170.342 180.996 170.441 182.349 171.232H182.382V171.265Z" fill="#208501" stroke="#38F100" stroke-width="1.64948" stroke-linecap="round" stroke-linejoin="round"/>
<path d="M197.656 139.1V150.811C197.656 152.362 197.128 153.45 196.138 154.011C195.116 154.605 193.928 154.506 192.542 153.714L182.348 147.809C180.996 147.05 179.809 145.764 178.786 144.015C177.763 142.234 177.235 140.584 177.235 139.034V127.322C177.235 125.772 177.763 124.683 178.786 124.089C179.809 123.529 180.996 123.628 182.348 124.419L192.542 130.291C193.928 131.083 195.116 132.37 196.138 134.118C197.128 135.867 197.656 137.549 197.656 139.1Z" fill="white" stroke="#38F100" stroke-width="1.64948" stroke-linecap="round" stroke-linejoin="round"/>
<path d="M192.541 223.949C193.003 224.213 193.432 224.51 193.827 224.906L177.267 233.187H177.234V250.044L150.842 263.24C154.834 260.964 156.846 256.609 156.846 250.176V168.527C156.846 164.601 156.088 160.543 154.537 156.354C153.02 152.164 150.875 148.205 148.17 144.477L134.644 125.574L97.168 73.1866C95.2875 70.5474 93.3742 68.3041 91.4278 66.4897C89.4484 64.6753 87.4687 63.1907 85.4233 62.0031C83.5759 60.9474 81.7614 60.1887 79.98 59.7268C79.7821 59.6608 79.6174 59.5948 79.4195 59.5619C77.4731 59.133 75.5597 59.133 73.6793 59.6278L22.6769 72.032C22.0171 72.1639 21.3575 72.3619 20.7637 72.6258L85.8522 40.0649L86.1164 39.933C86.9082 39.5371 87.7326 39.2402 88.6563 39.0423L139.659 26.6383C140.549 26.4073 141.44 26.2754 142.331 26.2754L112.211 41.3186C109.473 42.5722 108.12 45.6402 108.12 50.5227C108.12 53.2608 108.813 56.3948 110.166 59.8918C111.518 63.4216 113.3 66.7866 115.51 70.0196L158.562 130.325L168.822 144.708C171.56 148.403 173.638 152.362 175.09 156.519C176.508 160.642 177.234 164.667 177.234 168.593V173.838H177.267L182.38 171.265L192.541 177.137C193.069 177.434 193.531 177.797 193.993 178.259L177.3 186.605H177.234V220.552H177.267L182.281 218.044C182.281 218.044 182.281 218.044 182.347 218.044L192.541 223.917V223.949Z" fill="#72FF48" stroke="#38F100" stroke-width="1.64948" stroke-linecap="round" stroke-linejoin="round"/>
<path d="M304.441 100.403V264.296C304.441 270.729 302.429 275.084 298.437 277.36L232.457 310.35C236.449 308.073 238.462 303.719 238.462 297.286V133.393C238.462 126.96 236.449 120.296 232.457 113.401C228.466 106.506 223.682 101.426 218.041 98.193L195.212 85.0302L147.179 57.2858L123.163 43.4302C118.577 40.758 114.915 40.0652 112.21 41.3188L142.33 26.2755L178.189 8.32907C180.894 7.07546 184.556 7.76824 189.142 10.4404L284.021 65.2034C289.662 68.4363 294.445 73.5168 298.437 80.4116C302.429 87.3064 304.441 93.9704 304.441 100.403Z" fill="#72FF48" stroke="#38F100" stroke-width="1.64948" stroke-linecap="round" stroke-linejoin="round"/>
</svg>
