<svg width="320" height="320" viewBox="0 0 320 320" fill="none" xmlns="http://www.w3.org/2000/svg">
<path d="M222.201 137.548C220.64 134.189 218.815 131.042 216.753 128.133C215.113 125.806 213.315 123.637 211.331 121.627L141.751 51.4915C139.053 48.8204 136.329 46.7047 133.632 45.1444C130.934 43.5841 128.21 42.5791 125.513 42.1295L93.7509 37.4485L55.9326 31.8948C52.8913 31.5245 50.2205 31.9212 47.9197 33.1378H47.8402C46.8353 33.7196 45.9095 34.4336 45.0633 35.2799C42.2599 38.0832 40.8584 42.2617 40.8584 47.8155V110.678C40.8584 141.726 48.5808 175.207 64.0518 211.068C79.5228 246.956 100.283 277.395 126.386 302.44C127.549 303.55 128.713 304.555 129.85 305.455C131.014 306.354 132.283 307.174 133.632 307.967C134.981 308.734 136.25 309.369 137.414 309.818C138.551 310.268 139.715 310.585 140.878 310.823C158.068 314.155 172.958 312.516 185.52 305.825C192.052 302.36 197.923 297.574 203.212 291.412C204.72 289.666 206.148 287.841 207.47 285.964C220.111 268.562 226.405 245.845 226.405 217.812V154.949C226.405 149.396 225.004 143.604 222.201 137.548ZM178.855 183.696L175.814 185.415L130.088 211.518L129.586 211.809C127.259 213.131 124.561 212.893 121.467 211.121C118.372 209.323 115.648 206.44 113.348 202.447L88.9906 160.106C86.6633 156.087 85.4997 152.278 85.4997 148.602C85.4997 144.926 86.6633 142.467 88.9906 141.144C91.2914 139.822 94.0154 140.034 97.1096 141.832C99.5162 143.207 101.685 145.27 103.589 147.994C104.171 148.787 104.7 149.607 105.229 150.506L121.467 178.513L156.27 158.678L162.326 155.214C164.124 154.182 166.187 154.103 168.515 154.976H168.541C169.202 155.214 169.89 155.558 170.604 155.981C173.777 157.832 176.528 160.741 178.855 164.734C181.182 168.754 182.346 172.589 182.346 176.239C182.346 179.888 181.182 182.374 178.855 183.696Z" fill="#208501" stroke="#27A900" stroke-width="1.32231" stroke-linecap="round" stroke-linejoin="round"/>
<path d="M168.515 154.976L157.355 160.556L121.467 178.513L156.27 158.679L162.326 155.214C164.124 154.183 166.187 154.103 168.515 154.976Z" fill="#196701" stroke="#27A900" stroke-width="1.32231" stroke-linecap="round" stroke-linejoin="round"/>
<path d="M175.813 185.416L130.087 211.519L129.585 211.809C127.258 213.132 124.56 212.894 121.466 211.122C118.372 209.323 115.648 206.441 113.347 202.447L88.9897 160.107C86.6624 156.087 85.499 152.279 85.499 148.603C85.499 144.927 86.6624 142.467 88.9897 141.145C91.2905 139.823 94.0147 140.034 97.1089 141.833C99.5156 143.208 101.684 145.271 103.588 147.995C104.17 148.788 104.699 149.608 105.228 150.507L121.466 178.514L157.354 160.557L166.24 176.001C168.54 179.995 171.264 182.877 174.359 184.676C174.861 184.966 175.337 185.204 175.813 185.416Z" fill="white" stroke="#27A900" stroke-width="1.32231" stroke-linecap="round" stroke-linejoin="round"/>
<path d="M101.34 6.45386L100.812 6.69187L101.05 6.55964C101.05 6.55964 101.235 6.4803 101.34 6.45386Z" fill="white" stroke="#27A900" stroke-width="1.32231" stroke-linecap="round" stroke-linejoin="round"/>
<path d="M279.298 128.503V191.365C279.298 222.413 271.576 246.955 256.105 264.965C251.424 270.413 246.293 274.803 240.634 278.135C240.581 278.162 240.502 278.188 240.449 278.241C240.131 278.426 239.788 278.611 239.47 278.797C239.417 278.823 239.338 278.876 239.259 278.902L236.799 280.145L235.106 280.992L185.52 305.825C192.052 302.36 197.923 297.573 203.212 291.411C204.72 289.666 206.148 287.841 207.47 285.963C220.112 268.562 226.406 245.845 226.406 217.812V154.949C226.406 149.395 225.004 143.603 222.201 137.547C220.64 134.189 218.816 131.041 216.753 128.132C215.113 125.805 213.315 123.636 211.331 121.627L141.751 51.491C139.054 48.82 136.329 46.7043 133.632 45.1439C130.934 43.5836 128.211 42.5786 125.513 42.129L93.7513 37.4481L55.9329 31.8943C52.8916 31.5241 50.2207 31.9208 47.9199 33.1373L100.654 6.77042L100.812 6.69108L101.341 6.45307C103.51 5.42166 105.996 5.10431 108.825 5.44811L178.406 15.6828C181.103 16.1324 183.827 17.1374 186.525 18.6977C189.222 20.258 191.946 22.3737 194.644 25.0448L264.224 95.1803C268.667 99.729 272.29 105.045 275.093 111.101C277.896 117.157 279.298 122.949 279.298 128.503Z" fill="#72FF48" stroke="#38F100" stroke-width="1.32231" stroke-linecap="round" stroke-linejoin="round"/>
<path d="M101.633 6.29517L101.342 6.45384L101.633 6.29517Z" fill="white"/>
<path d="M101.633 6.29517L101.342 6.45384" stroke="#27A900" stroke-width="1.32231" stroke-linecap="round" stroke-linejoin="round"/>
<path d="M185.52 305.825L183.166 307.015L185.52 305.825Z" fill="white"/>
<path d="M185.52 305.825L183.166 307.015" stroke="#27A900" stroke-width="1.32231" stroke-linecap="round" stroke-linejoin="round"/>
</svg>
