<svg width="320" height="320" viewBox="0 0 320 320" fill="none" xmlns="http://www.w3.org/2000/svg">
<path d="M186.19 211.464C186.355 211.761 186.52 212.091 186.718 212.421C187.378 213.576 188.103 214.631 188.829 215.588L186.19 211.464ZM140.697 300.668C141.489 300.569 142.247 300.305 142.94 299.91L147.097 297.501L140.697 300.668ZM41.5299 109.757C37.934 103.522 33.5467 98.936 28.3671 95.934C23.7486 93.2618 19.7568 92.6353 16.3589 94.0209L15.2373 94.5817C11.6084 96.6271 9.79395 100.619 9.79395 106.524V155.91C9.79395 163.035 11.7073 169.468 15.5341 175.209C19.3609 180.982 23.6496 185.204 28.3671 187.943C33.1178 190.681 37.4065 191.406 41.2333 190.054L42.8168 189.262C45.5879 187.382 46.9735 183.423 46.9735 177.353V128C46.9735 122.062 45.1587 115.992 41.5299 109.757Z" fill="#2AB300" stroke="#38F100" stroke-width="1.64948" stroke-linecap="round" stroke-linejoin="round"/>
<path d="M170.78 85.8067V199.852C170.78 206.054 169.329 210.079 166.393 211.86L165.073 212.52C164.545 212.718 163.984 212.883 163.39 212.949C159.993 213.642 156.265 212.784 152.207 210.442C150.854 209.65 149.535 208.726 148.249 207.703C145.049 205.13 142.079 201.798 139.374 197.675C135.548 191.935 133.634 185.502 133.634 178.376V64.3634C133.634 59.217 134.987 55.5552 137.692 53.3449C138.088 52.982 138.549 52.6521 139.044 52.3882C142.673 50.3428 147.061 50.7717 152.207 53.7737C157.353 56.7428 161.741 61.3614 165.37 67.5634C168.966 73.7985 170.78 79.8686 170.78 85.8067Z" fill="#2AB300" stroke="#38F100" stroke-width="1.64948" stroke-linecap="round" stroke-linejoin="round"/>
<path d="M186.192 211.464C186.357 211.761 186.522 212.091 186.72 212.421C187.38 213.575 188.105 214.631 188.831 215.588L186.192 211.464Z" fill="#CFFEC1" stroke="#38F100" stroke-width="1.64948" stroke-linecap="round" stroke-linejoin="round"/>
<path d="M143.108 40.4785L95.999 64.0331L139.743 42.128L143.108 40.4785Z" fill="#CFFEC1" stroke="#38F100" stroke-width="1.64948" stroke-linecap="round" stroke-linejoin="round"/>
<path d="M77.1264 164.058C78.413 166.268 79.7986 168.281 81.2502 170.062L42.8172 189.262C45.5883 187.382 46.9739 183.423 46.9739 177.353V128C46.9739 122.062 45.1594 115.992 41.5306 109.757C37.9347 103.522 33.5471 98.9362 28.3677 95.9341C23.7491 93.262 19.7573 92.6355 16.3594 94.0211L81.2172 61.5922C84.813 59.5138 89.2007 59.9754 94.3471 62.9444C94.8089 63.2084 95.2378 63.4723 95.6666 63.7692L95.9966 64.0334L77.3904 73.3365C77.3904 73.3365 77.2254 73.4025 77.1264 73.4685C76.6316 73.7654 76.1697 74.0623 75.7739 74.4252C73.0687 76.6685 71.7161 80.3303 71.7161 85.4437V145.848C71.7161 151.753 73.5306 157.823 77.1264 164.058Z" fill="#CFFEC1" stroke="#38F100" stroke-width="1.64948" stroke-linecap="round" stroke-linejoin="round"/>
<path d="M236.761 52.8165V167.159L217.298 176.891L187.442 191.802L186.716 192.165C184.341 193.517 183.186 196.223 183.186 200.248C183.186 201.27 183.252 202.293 183.417 203.348L181.603 204.272L166.395 211.86C169.331 210.078 170.782 206.053 170.782 199.851V85.8062C170.782 79.868 168.968 73.7979 165.372 67.5629C161.743 61.3608 157.355 56.7422 152.209 53.7732C147.062 50.7711 142.675 50.3422 139.046 52.3876L157.949 42.9526L205.025 19.3979C208.654 17.3525 213.042 17.7815 218.188 20.7836C223.335 23.7527 227.722 28.371 231.351 34.5731C234.947 40.8081 236.761 46.8783 236.761 52.8165Z" fill="#CFFEC1" stroke="#38F100" stroke-width="1.64948" stroke-linecap="round" stroke-linejoin="round"/>
<path d="M157.952 42.9532L139.049 52.3882C138.554 52.6521 138.092 52.982 137.696 53.3449C134.991 55.5552 133.639 59.2171 133.639 64.3635V164.19L103.453 179.266C107.082 177.188 108.863 173.196 108.863 167.291V106.887C108.863 100.982 107.082 94.9119 103.453 88.6769C99.8571 82.4418 95.4695 77.8233 90.2901 74.8542C85.8695 72.314 82.0097 71.5882 78.7107 72.7758C78.4468 72.8748 78.1829 72.9408 77.9189 73.0727L143.107 40.4789C146.735 38.4336 151.123 38.8956 156.269 41.8646C156.731 42.1285 157.16 42.3925 157.589 42.6894L157.952 42.9532Z" fill="#CFFEC1" stroke="#38F100" stroke-width="1.64948" stroke-linecap="round" stroke-linejoin="round"/>
<path d="M220.332 255.802V260.421L208.917 266.919L208.093 267.315L147.59 297.237L201.231 266.688L220.332 255.802Z" fill="white" stroke="#38F100" stroke-width="1.64948" stroke-linecap="round" stroke-linejoin="round"/>
<path d="M245.077 235.976V278.599C245.077 282.623 243.889 285.328 241.514 286.681C239.138 288.034 236.203 287.703 232.706 285.658C229.209 283.646 226.24 280.578 223.898 276.487C221.522 272.396 220.335 268.339 220.335 264.314V255.803L201.234 266.689L147.592 297.237L147.097 297.502L140.697 300.669C138.916 300.966 136.936 300.57 134.726 299.448C131.526 297.832 128.689 294.994 126.215 290.97L92.3017 237.922L90.9161 235.778L48.1944 260.124C47.1718 260.718 45.8852 260.982 44.3346 260.916C42.7841 260.85 41.1676 260.355 39.5182 259.399C34.1738 256.298 30.3799 251.217 28.2356 244.157C26.0583 237.13 26.9489 232.479 30.8747 230.236L81.646 201.304L82.5034 200.875C84.5817 200.05 87.0233 200.347 89.8274 201.766C90.9821 202.326 92.0704 203.052 93.0931 203.943C95.0065 205.526 96.7553 207.637 98.3388 210.244L109.588 227.86L110.248 228.883L133.637 265.435L180.021 238.978L197.44 229.048L202.982 225.881L195.559 221.592C193.052 220.141 190.776 218.128 188.829 215.588L186.19 211.464C184.739 208.726 183.815 206.021 183.419 203.349C183.254 202.293 183.188 201.271 183.188 200.248C183.188 196.223 184.343 193.518 186.718 192.166L187.444 191.803C189.687 190.912 192.425 191.341 195.559 193.188L199.353 195.365L231.782 214.104L232.706 214.632C236.203 216.644 239.138 219.712 241.514 223.802C243.889 227.893 245.077 231.951 245.077 235.976Z" fill="#2AB300" stroke="#38F100" stroke-width="1.64948" stroke-linecap="round" stroke-linejoin="round"/>
<path d="M311.055 202.986V245.609C311.055 249.633 309.867 252.339 307.492 253.691L306.766 254.054L241.512 286.681C243.888 285.328 245.075 282.623 245.075 278.598V235.976C245.075 231.951 243.888 227.893 241.512 223.802C239.137 219.711 236.201 216.644 232.704 214.631L231.781 214.104L199.352 195.365L195.558 193.188C192.424 191.341 189.686 190.912 187.442 191.802L217.298 176.891L236.762 167.159L252.696 159.176C255.071 157.823 258.04 158.153 261.537 160.198L298.684 181.642C302.181 183.654 305.117 186.722 307.492 190.812C309.867 194.903 311.055 198.961 311.055 202.986Z" fill="#CFFEC1" stroke="#38F100" stroke-width="1.64948" stroke-linecap="round" stroke-linejoin="round"/>
<path d="M108.86 106.887V167.291C108.86 173.196 107.079 177.188 103.45 179.266C99.8541 181.311 95.4664 180.85 90.2871 177.881C86.9551 175.967 83.9527 173.361 81.2476 170.062C79.796 168.281 78.4104 166.268 77.1238 164.058C73.528 157.823 71.7139 151.753 71.7139 145.847V85.4436C71.7139 80.3302 73.0664 76.6684 75.7716 74.4251C76.1675 74.0622 76.629 73.7653 77.1238 73.4684C77.2228 73.4024 77.2891 73.3691 77.3881 73.3361L77.9159 73.0725C78.1798 72.9405 78.4438 72.8746 78.7077 72.7756C82.0066 71.588 85.8664 72.3137 90.2871 74.8539C95.4664 77.823 99.8541 82.4412 103.45 88.6763C107.079 94.9113 108.86 100.982 108.86 106.887Z" fill="#2AB300" stroke="#38F100" stroke-width="1.64948" stroke-linecap="round" stroke-linejoin="round"/>
<path d="M16.3598 94.0205L15.2383 94.5813L16.3598 94.0205Z" fill="#CFFEC1"/>
<path d="M16.3598 94.0205L15.2383 94.5813" stroke="#38F100" stroke-width="1.64948" stroke-linecap="round" stroke-linejoin="round"/>
<path d="M42.814 189.262L41.2305 190.053L42.814 189.262Z" fill="#CFFEC1"/>
<path d="M42.814 189.262L41.2305 190.053" stroke="#38F100" stroke-width="1.64948" stroke-linecap="round" stroke-linejoin="round"/>
<path d="M197.436 229.048L180.018 238.978L133.634 265.435L110.244 228.883L109.585 227.861L98.3354 210.244C96.7519 207.638 95.0031 205.527 93.0897 203.943C92.067 203.052 90.9784 202.327 89.8237 201.766C87.0196 200.347 84.5784 200.05 82.5 200.875L133.634 175.308V178.376C133.634 185.502 135.548 191.935 139.375 197.675C142.08 201.799 145.049 205.13 148.249 207.703C149.535 208.726 150.855 209.65 152.207 210.442C156.265 212.784 159.993 213.642 163.391 212.949C163.985 212.883 164.545 212.718 165.073 212.52L166.393 211.86L181.601 204.273L186.187 211.464C186.352 211.761 186.517 212.091 186.714 212.421C187.374 213.576 188.1 214.631 188.826 215.588L197.436 229.048Z" fill="#CFFEC1" stroke="#38F100" stroke-width="1.64948" stroke-linecap="round" stroke-linejoin="round"/>
<path d="M92.3035 237.922L48.1963 260.124L92.3035 237.922Z" fill="white"/>
<path d="M92.3035 237.922L48.1963 260.124" stroke="#38F100" stroke-width="1.64948" stroke-linecap="round" stroke-linejoin="round"/>
<path d="M140.698 300.668L140.632 300.701L140.698 300.668Z" fill="#CFFEC1"/>
<path d="M140.698 300.668L140.632 300.701" stroke="#38F100" stroke-width="1.64948" stroke-linecap="round" stroke-linejoin="round"/>
<path d="M143.635 40.1816L139.742 42.1279L143.635 40.1816Z" fill="#CFFEC1"/>
<path d="M143.635 40.1816L139.742 42.1279" stroke="#38F100" stroke-width="1.64948" stroke-linecap="round" stroke-linejoin="round"/>
</svg>
