<svg width="320" height="320" viewBox="0 0 320 320" fill="none" xmlns="http://www.w3.org/2000/svg">
<path d="M132.598 73.625L111.599 61.5107V84.1393L151.056 106.939V84.2822L132.598 73.625ZM266.112 213.682L229.97 231.768L181.912 204.025L160.913 214.511L229.97 254.396L287.113 225.825L266.112 213.682ZM111.599 140.739C108.799 139.139 106.456 138.882 104.57 139.939C102.656 141.025 101.713 143.168 101.713 146.368V157.711L122.77 147.196L111.599 140.739Z" fill="#CFFEC1" stroke="#38F100" stroke-width="1.42857" stroke-linecap="round" stroke-linejoin="round"/>
<path d="M287.113 225.825V271.111C287.113 277.339 285.199 281.568 281.342 283.768L280.114 284.368L224.199 312.34C228.056 310.14 229.971 305.911 229.971 299.683V254.397L287.113 225.825Z" fill="#CFFEC1" stroke="#38F100" stroke-width="1.42857" stroke-linecap="round" stroke-linejoin="round"/>
<path d="M229.971 254.397V299.683C229.971 305.912 228.056 310.14 224.199 312.34C220.313 314.54 215.685 314.083 210.257 310.94L52.3995 219.797C46.971 216.654 42.3135 211.768 38.4563 205.082C34.5992 198.425 32.6562 191.997 32.6562 185.768V140.482L95.8851 176.968L101.714 180.34V191.654C101.714 194.882 102.657 198.111 104.571 201.368C106.457 204.625 108.799 207.082 111.599 208.682L151.057 231.482C153.857 233.082 156.199 233.34 158.085 232.282C159.971 231.197 160.914 229.054 160.914 225.854V214.511L229.971 254.397Z" fill="#2AB300" stroke="#38F100" stroke-width="1.42857" stroke-linecap="round" stroke-linejoin="round"/>
<path d="M162.2 192.624L141.199 203.139V180.482L158.6 171.796C160.142 174.739 160.914 177.653 160.914 180.567V191.882L162.2 192.624Z" fill="#CFFEC1" stroke="#38F100" stroke-width="1.42857" stroke-linecap="round" stroke-linejoin="round"/>
<path d="M141.2 180.482V203.139L121.457 191.739V169.082L122.742 169.825L141.2 180.482Z" fill="#2AB300" stroke="#38F100" stroke-width="1.42857" stroke-linecap="round" stroke-linejoin="round"/>
<path d="M158.6 171.797L141.2 180.483L122.742 169.826L121.457 169.083L142.457 158.568L143.743 159.311L151.057 163.54C153.857 165.14 156.2 167.597 158.086 170.854C158.257 171.168 158.428 171.483 158.6 171.797Z" fill="#CFFEC1" stroke="#38F100" stroke-width="1.42857" stroke-linecap="round" stroke-linejoin="round"/>
<path d="M118.942 26.8245L98.8853 36.8531L97.6561 37.4531C93.799 39.6531 91.8561 43.8817 91.8561 50.1103V72.7389L89.799 71.5389L52.3994 49.9674C47.5423 47.1389 43.2846 46.4817 39.6846 47.9674L95.599 19.9959C99.4561 17.7959 104.114 18.2531 109.542 21.3959L118.942 26.8245Z" fill="#CFFEC1" stroke="#38F100" stroke-width="1.42857" stroke-linecap="round" stroke-linejoin="round"/>
<path d="M229.514 169.939C228.771 165.339 226.999 160.654 224.199 155.796C222.056 152.139 219.713 149.025 217.113 146.482C214.999 144.311 212.714 142.539 210.257 141.111L170.799 118.311V95.6822C170.799 89.4536 168.857 82.9964 164.999 76.3393C161.714 70.6821 157.856 66.2821 153.456 63.1964C152.685 62.625 151.885 62.1107 151.057 61.6536L111.599 38.8536C106.742 36.0536 102.485 35.3679 98.8854 36.8536L97.6563 37.4536C93.7991 39.6536 91.8563 43.8821 91.8563 50.1107V72.7393L89.7991 71.5393L52.3995 49.9679C47.5424 47.1393 43.2847 46.4821 39.6847 47.9679L38.4563 48.5679C34.5992 50.7679 32.6562 54.9964 32.6562 61.225V117.825L53.6851 129.968L89.7991 150.825L101.714 157.71V146.368C101.714 143.168 102.657 141.025 104.571 139.939C106.457 138.882 108.799 139.139 111.599 140.739L122.771 147.196L142.457 158.568L143.742 159.311L151.057 163.539C153.857 165.139 156.199 167.596 158.085 170.854C158.257 171.168 158.428 171.482 158.599 171.796C160.142 174.739 160.914 177.653 160.914 180.568V191.882L162.199 192.625L181.913 204.025L229.971 231.768V175.139C229.971 173.425 229.828 171.682 229.514 169.939ZM151.057 106.939L111.599 84.1393V61.5107L132.599 73.625L151.057 84.2822V106.939Z" fill="#2AB300" stroke="#38F100" stroke-width="1.42857" stroke-linecap="round" stroke-linejoin="round"/>
<path d="M287.112 146.568V203.196L266.112 213.682L229.969 231.768V175.139C229.969 173.425 229.826 171.682 229.512 169.939C228.769 165.339 226.998 160.654 224.198 155.796C222.055 152.139 219.712 149.025 217.112 146.482C214.998 144.311 212.712 142.539 210.255 141.111L170.798 118.311L227.941 89.7393L267.398 112.539C272.827 115.682 277.455 120.568 281.34 127.225C285.198 133.911 287.112 140.339 287.112 146.568Z" fill="#CFFEC1" stroke="#38F100" stroke-width="1.42857" stroke-linecap="round" stroke-linejoin="round"/>
<path d="M227.941 67.1104V89.739L170.798 118.31V95.6819C170.798 89.4533 168.855 82.9961 164.998 76.339C161.712 70.6819 157.855 66.2819 153.455 63.1961C152.683 62.6247 151.884 62.1104 151.055 61.6533L111.598 38.8533C106.741 36.0533 102.484 35.3676 98.8838 36.8533L118.94 26.8248L154.798 8.88191C158.655 6.68191 163.312 7.16763 168.741 10.2819L208.198 33.0819C213.627 36.1961 218.255 41.1104 222.141 47.7676C225.998 54.4247 227.941 60.8819 227.941 67.1104Z" fill="#CFFEC1" stroke="#38F100" stroke-width="1.42857" stroke-linecap="round" stroke-linejoin="round"/>
<path d="M132.598 73.625L111.599 84.1393L132.598 73.625Z" fill="white"/>
<path d="M132.598 73.625L111.599 84.1393" stroke="#38F100" stroke-width="1.42857" stroke-linecap="round" stroke-linejoin="round"/>
<path d="M142.457 158.568L121.457 169.082V170.482L101.714 180.339L95.8851 176.968L32.6562 140.482L53.6851 129.968L89.7991 150.825L101.714 157.711L122.771 147.196L142.457 158.568Z" fill="#CFFEC1" stroke="#38F100" stroke-width="1.42857" stroke-linecap="round" stroke-linejoin="round"/>
<path d="M181.912 204.025L160.913 214.511V225.854C160.913 229.054 159.97 231.197 158.084 232.282C156.199 233.34 153.856 233.082 151.056 231.482L111.599 208.682C108.799 207.082 106.456 204.625 104.57 201.368C102.656 198.111 101.713 194.882 101.713 191.654V180.34L121.455 170.482V191.74L141.198 203.14L162.198 192.625L181.912 204.025Z" fill="#CFFEC1" stroke="#38F100" stroke-width="1.42857" stroke-linecap="round" stroke-linejoin="round"/>
</svg>
