<svg width="426" height="309" viewBox="0 0 426 309" fill="none" xmlns="http://www.w3.org/2000/svg">
<g filter="url(#filter0_d_192_23)">
<g clip-path="url(#clip0_192_23)">
<rect x="14.708" y="73.9164" width="364" height="219" rx="12" transform="rotate(-10 14.708 73.9164)" fill="#F2F2F2"/>
<path d="M32.9114 94.2727C32.2115 94.3961 31.5779 94.3714 31.0106 94.1986C30.4433 94.0259 29.9654 93.7361 29.5769 93.3294C29.1954 92.9126 28.9249 92.4015 28.7653 91.796L29.904 91.5161C30.0435 91.9579 30.2435 92.3186 30.504 92.5983C30.7645 92.878 31.0798 93.0688 31.4498 93.1708C31.8283 93.2712 32.2608 93.2786 32.7473 93.1928C33.1741 93.1175 33.527 92.9981 33.8062 92.8345C34.0854 92.6708 34.2829 92.4688 34.3989 92.2283C34.5235 91.9864 34.5587 91.7117 34.5045 91.4045C34.4548 91.1228 34.3429 90.8874 34.1687 90.6981C34.0016 90.4987 33.7144 90.3425 33.3073 90.2295C32.9072 90.1065 32.3286 90.0193 31.5715 89.968C30.84 89.9121 30.2464 89.8144 29.7905 89.6748C29.3432 89.5336 28.9986 89.326 28.7566 89.0519C28.5232 88.7762 28.3666 88.4122 28.2869 87.9598C28.1966 87.4477 28.2371 86.9786 28.4083 86.5524C28.5866 86.1161 28.8831 85.7514 29.2978 85.4583C29.7111 85.1566 30.2292 84.9508 30.8523 84.841C31.518 84.7236 32.1124 84.7508 32.6355 84.9226C33.1571 85.0858 33.5971 85.3602 33.9555 85.7458C34.3139 86.1315 34.5762 86.5956 34.7423 87.1384L33.6036 87.4184C33.4877 87.0604 33.311 86.7571 33.0736 86.5086C32.8432 86.25 32.5558 86.0675 32.2114 85.961C31.867 85.8545 31.4686 85.8411 31.0163 85.9209C30.453 86.0202 30.029 86.2358 29.7443 86.5676C29.458 86.8909 29.3533 87.2702 29.4301 87.7055C29.4797 87.9871 29.5851 88.2105 29.7463 88.3757C29.9144 88.5309 30.182 88.6509 30.549 88.7358C30.9145 88.8122 31.4316 88.875 32.1003 88.9243C32.893 88.9781 33.5346 89.0982 34.0251 89.2845C34.5226 89.4608 34.8953 89.7031 35.1433 90.0114C35.3998 90.3182 35.5664 90.6892 35.6432 91.1245C35.7365 91.6537 35.6812 92.1386 35.4773 92.5794C35.2719 93.0116 34.949 93.3766 34.5087 93.6742C34.0669 93.9634 33.5344 94.1628 32.9114 94.2727ZM38.0615 95.1335L36.5264 86.4278L37.525 86.2517L37.808 87.7067L37.6408 87.6569C37.7227 87.1233 37.9374 86.6938 38.2849 86.3685C38.6394 86.0332 39.0769 85.8196 39.5976 85.7278C40.2718 85.609 40.8517 85.6783 41.3371 85.9359C41.8311 86.192 42.2279 86.5709 42.5276 87.0725C42.8358 87.5726 43.0448 88.1341 43.1546 88.7572C43.2645 89.3802 43.2601 89.9794 43.1416 90.5548C43.0316 91.1286 42.7882 91.6203 42.4117 92.0299C42.0436 92.438 41.5224 92.7015 40.8482 92.8204C40.4982 92.8821 40.1591 92.8803 39.8308 92.815C39.511 92.7482 39.2256 92.6269 38.9746 92.4512C38.7321 92.2739 38.5469 92.047 38.4189 91.7703L38.5409 91.564L39.1369 94.9438L38.0615 95.1335ZM40.5652 91.8143C41.1541 91.7104 41.5801 91.4065 41.8432 90.9025C42.1064 90.3985 42.168 89.7496 42.028 88.9558C41.8881 88.1621 41.6082 87.5734 41.1886 87.1898C40.7689 86.8062 40.2646 86.6663 39.6757 86.7701C39.2831 86.8393 38.9583 86.9934 38.7012 87.2324C38.4526 87.4698 38.2804 87.7906 38.1845 88.1947C38.097 88.5973 38.1022 89.076 38.2001 89.6308C38.2979 90.1856 38.4567 90.6372 38.6766 90.9857C38.8964 91.3341 39.168 91.5766 39.4913 91.7132C39.8146 91.8498 40.1725 91.8835 40.5652 91.8143ZM47.825 91.5902C47.1849 91.7031 46.6046 91.6558 46.084 91.4484C45.5719 91.2395 45.1412 90.893 44.7918 90.409C44.4495 89.9149 44.2151 89.3094 44.0887 88.5925C43.9623 87.8755 43.9762 87.2307 44.1304 86.6579C44.2932 86.0835 44.5751 85.6114 44.9763 85.2414C45.3845 84.8615 45.9002 84.6165 46.5232 84.5067C47.1121 84.4028 47.6576 84.4518 48.1596 84.6537C48.6601 84.8471 49.0808 85.1865 49.4216 85.6721C49.771 86.1561 50.0126 86.7779 50.1466 87.5375L50.203 87.8576L45.274 88.7267C45.4446 89.4446 45.733 89.957 46.1391 90.2638C46.5537 90.5691 47.0555 90.6699 47.6444 90.566C48.0883 90.4878 48.4329 90.3214 48.6785 90.0669C48.931 89.8023 49.0827 89.4896 49.1335 89.1286L50.3015 89.0151C50.2291 89.6527 49.9757 90.2122 49.5414 90.6936C49.1141 91.1649 48.542 91.4638 47.825 91.5902ZM45.107 87.7793L48.8581 87.1179C48.691 86.4697 48.414 86.0214 48.0269 85.7728C47.6484 85.5227 47.2074 85.4421 46.7038 85.5309C46.1832 85.6227 45.7807 85.8608 45.4965 86.2454C45.2194 86.6198 45.0895 87.1312 45.107 87.7793ZM52.1352 90.6718L50.9388 83.8865L51.9245 83.7127L52.2677 85.4342L52.1194 85.3416C52.134 84.9254 52.2254 84.5705 52.3936 84.2768C52.5604 83.9746 52.7818 83.7331 53.0579 83.5524C53.3426 83.3702 53.6599 83.2483 54.0099 83.1866C54.5305 83.0948 54.9776 83.1347 55.3511 83.3065C55.7331 83.4767 56.0398 83.7439 56.2712 84.1079C56.5096 84.4619 56.671 84.8778 56.7553 85.3558L57.525 89.7214L56.4496 89.9111L55.734 85.8527C55.6603 85.4345 55.5474 85.0936 55.3953 84.83C55.2502 84.5563 55.0582 84.3658 54.8193 84.2583C54.5788 84.1423 54.2879 84.1144 53.9465 84.1746C53.4258 84.2664 53.0242 84.5088 52.7415 84.9019C52.4658 85.2849 52.3836 85.7922 52.495 86.4238L53.2106 90.4822L52.1352 90.6718ZM61.7941 89.1271C61.2051 89.2309 60.6675 89.1761 60.181 88.9627C59.7031 88.7478 59.3023 88.396 58.9785 87.9075C58.6548 87.419 58.4289 86.812 58.301 86.0865C58.1731 85.361 58.1777 84.7134 58.3148 84.1436C58.452 83.5738 58.7083 83.1061 59.0839 82.7407C59.468 82.3738 59.9545 82.1384 60.5434 82.0345C60.9958 81.9548 61.4271 81.9799 61.8372 82.11C62.2459 82.2316 62.5749 82.4507 62.8244 82.7676L62.251 79.5157L63.3264 79.3261L64.9292 88.4159L63.9562 88.5875L63.7372 87.57C63.6141 87.9701 63.3794 88.3107 63.0329 88.5918C62.685 88.8644 62.272 89.0428 61.7941 89.1271ZM61.8311 88.0645C62.2323 87.9938 62.5513 87.8319 62.7883 87.5789C63.0339 87.3244 63.1961 86.9966 63.275 86.5955C63.3523 86.1858 63.3459 85.725 63.2556 85.2129C63.1623 84.6837 63.0099 84.2441 62.7986 83.8942C62.5873 83.5442 62.3235 83.2959 62.0073 83.1493C61.698 82.9926 61.3428 82.9496 60.9417 83.0203C60.3442 83.1257 59.9062 83.4361 59.6274 83.9517C59.3558 84.4572 59.2892 85.1026 59.4276 85.8878C59.5646 86.6645 59.8479 87.2482 60.2776 87.6388C60.7158 88.028 61.2337 88.1699 61.8311 88.0645Z" fill="black"/>
<circle cx="352.668" cy="32.6025" r="2" transform="rotate(-10 352.668 32.6025)" fill="black"/>
<circle cx="358.578" cy="31.5606" r="2" transform="rotate(-10 358.578 31.5606)" fill="black"/>
<circle cx="364.486" cy="30.5187" r="2" transform="rotate(-10 364.486 30.5187)" fill="black"/>
<path d="M41.2564 138.934C38.4985 136.009 36.8139 132.813 36.2027 129.346C35.5887 125.864 36.0786 122.284 37.6723 118.608L39.8941 118.216C38.5246 121.967 38.1371 125.528 38.7317 128.9C39.029 130.586 39.5719 132.237 40.3604 133.853C41.1619 135.45 42.2012 137.013 43.4782 138.542L41.2564 138.934ZM50.4627 136.823L46.7536 115.788L48.5499 115.471L52.259 136.507L50.4627 136.823ZM51.2332 134.835C49.9254 135.066 48.7492 135.03 47.7047 134.726C46.6574 134.407 45.7751 133.873 45.0578 133.122C44.3563 132.368 43.8596 131.44 43.5678 130.338L46.1191 129.742C46.347 130.482 46.6815 131.089 47.1226 131.563C47.5609 132.022 48.0887 132.344 48.706 132.527C49.3362 132.692 50.061 132.703 50.8804 132.558C51.5895 132.433 52.1808 132.239 52.6545 131.977C53.1254 131.699 53.4563 131.365 53.6473 130.974C53.854 130.58 53.9115 130.123 53.8199 129.603C53.7365 129.13 53.554 128.74 53.2723 128.432C52.9878 128.109 52.504 127.853 51.8209 127.664C51.1351 127.46 50.1605 127.324 48.8972 127.254C47.5338 127.169 46.4235 127 45.5661 126.745C44.7088 126.49 44.0569 126.109 43.6102 125.603C43.1765 125.078 42.8832 124.383 42.7304 123.516C42.5665 122.586 42.6505 121.727 42.9824 120.937C43.3116 120.132 43.859 119.458 44.6246 118.917C45.4033 118.357 46.3835 117.973 47.5652 117.765C48.8258 117.543 49.9375 117.582 50.9005 117.884C51.8792 118.182 52.6994 118.687 53.3611 119.399C54.0228 120.111 54.5083 120.976 54.8178 121.994L52.2665 122.59C52.0794 121.989 51.7852 121.473 51.3839 121.04C50.9984 120.604 50.5141 120.299 49.9312 120.126C49.3454 119.937 48.6744 119.909 47.918 120.042C46.9726 120.209 46.2631 120.562 45.7894 121.1C45.3157 121.638 45.1427 122.27 45.2705 122.995C45.3539 123.468 45.5336 123.842 45.8098 124.118C46.1017 124.392 46.5522 124.597 47.1611 124.733C47.7858 124.867 48.6561 124.965 49.772 125.028C51.2485 125.109 52.4459 125.312 53.3644 125.638C54.2801 125.947 54.9747 126.385 55.4482 126.952C55.9218 127.518 56.2294 128.203 56.3711 129.007C56.5434 129.984 56.4413 130.879 56.0649 131.693C55.6857 132.491 55.0817 133.166 54.2531 133.718C53.4216 134.255 52.415 134.627 51.2332 134.835ZM67.426 131.639L66.8092 128.141L58.3478 129.633L57.9644 127.458L64.1598 114.912L67.0197 114.408L68.9534 125.375L71.0097 125.012L71.4181 127.328L69.3619 127.691L69.9787 131.189L67.426 131.639ZM60.8465 126.804L66.4008 125.825L65.0922 118.403L60.8465 126.804ZM74.8142 134.162L75.3417 130.243L74.0417 130.472L73.5166 127.494L76.5656 126.957L77.0282 129.58L76.256 133.908L74.8142 134.162ZM85.569 128.83C84.3242 129.049 83.2259 129.04 82.274 128.802C81.3194 128.547 80.5261 128.102 79.894 127.467C79.262 126.831 78.8233 126.047 78.5778 125.115L81.1721 124.487C81.4538 125.348 81.9407 125.944 82.6331 126.277C83.3384 126.591 84.1795 126.662 85.1564 126.49C86.2594 126.295 87.0718 125.835 87.5938 125.11C88.1314 124.381 88.303 123.466 88.1085 122.363C87.9807 121.638 87.7213 121.042 87.3302 120.575C86.9521 120.089 86.4702 119.751 85.8845 119.562C85.296 119.357 84.6314 119.32 83.8908 119.451C83.1503 119.581 82.5162 119.856 81.9888 120.274C81.4614 120.691 81.1202 121.198 80.9653 121.794L78.3182 122.261L77.769 112.512L87.6013 110.779L88.0139 113.119L80.4506 114.452L80.7542 120.321L80.2899 120.037C80.4744 119.517 80.7451 119.071 81.102 118.7C81.4561 118.312 81.8872 117.993 82.3951 117.74C82.9161 117.47 83.4838 117.28 84.0983 117.172C85.2328 116.972 86.2607 117.043 87.1819 117.384C88.1189 117.722 88.9002 118.283 89.5257 119.066C90.1512 119.85 90.5612 120.793 90.7557 121.896C90.9585 123.046 90.8777 124.108 90.5134 125.082C90.149 126.056 89.545 126.87 88.7015 127.522C87.8579 128.174 86.8138 128.61 85.569 128.83ZM101.018 126.106C99.6311 126.35 98.3631 126.208 97.2139 125.68C96.0647 125.151 95.099 124.282 94.3169 123.071C93.5348 121.861 92.9854 120.357 92.6687 118.561C92.3519 116.765 92.354 115.164 92.6749 113.759C93.0088 112.335 93.6174 111.18 94.5008 110.293C95.3972 109.388 96.5387 108.813 97.9253 108.568C99.3277 108.321 100.597 108.471 101.733 109.018C102.882 109.546 103.848 110.416 104.63 111.627C105.428 112.834 105.987 114.344 106.306 116.156C106.623 117.953 106.621 119.553 106.3 120.958C105.979 122.363 105.369 123.511 104.47 124.4C103.571 125.29 102.42 125.859 101.018 126.106ZM100.605 123.766C101.944 123.53 102.879 122.796 103.41 121.565C103.94 120.335 104.023 118.687 103.659 116.623C103.415 115.236 103.042 114.092 102.542 113.189C102.057 112.283 101.457 111.642 100.74 111.264C100.037 110.869 99.2361 110.75 98.3379 110.908C97.4555 111.064 96.7437 111.449 96.2023 112.065C95.6739 112.661 95.329 113.47 95.1676 114.489C95.0219 115.506 95.0713 116.708 95.3158 118.094C95.6798 120.158 96.3214 121.678 97.2407 122.653C98.1601 123.628 99.2815 123.999 100.605 123.766ZM116.849 123.314C115.462 123.559 114.194 123.417 113.045 122.888C111.896 122.36 110.93 121.49 110.148 120.28C109.366 119.069 108.816 117.566 108.5 115.77C108.183 113.973 108.185 112.373 108.506 110.967C108.84 109.544 109.449 108.389 110.332 107.502C111.228 106.596 112.37 106.021 113.756 105.777C115.159 105.53 116.428 105.679 117.564 106.226C118.714 106.755 119.679 107.624 120.461 108.835C121.259 110.043 121.818 111.553 122.137 113.365C122.454 115.161 122.452 116.762 122.131 118.167C121.81 119.572 121.2 120.719 120.301 121.609C119.402 122.499 118.251 123.067 116.849 123.314ZM116.436 120.974C117.776 120.738 118.71 120.005 119.241 118.774C119.771 117.543 119.854 115.896 119.49 113.832C119.246 112.445 118.873 111.3 118.373 110.397C117.888 109.492 117.288 108.85 116.571 108.473C115.868 108.077 115.067 107.958 114.169 108.117C113.287 108.272 112.575 108.658 112.033 109.273C111.505 109.87 111.16 110.678 110.999 111.698C110.853 112.714 110.902 113.916 111.147 115.303C111.511 117.367 112.153 118.887 113.072 119.862C113.991 120.837 115.113 121.208 116.436 120.974ZM127.221 123.776L124.999 124.168C125.676 122.294 126.11 120.471 126.301 118.699C126.505 116.908 126.458 115.17 126.161 113.484C125.567 110.112 123.984 106.898 121.415 103.842L123.636 103.45C126.392 106.36 128.076 109.556 128.69 113.038C129.301 116.505 128.812 120.084 127.221 123.776Z" fill="black"/>
<path d="M146.345 112.139L149.828 106.955L141.299 108.459L146.345 112.139Z" fill="#2AB300"/>
<path d="M154.302 111.243C154.224 110.8 154.221 110.389 154.295 110.011C154.373 109.625 154.558 109.239 154.849 108.853C155.146 108.465 155.579 108.051 156.147 107.61C156.409 107.405 156.618 107.222 156.772 107.061C156.926 106.899 157.032 106.738 157.089 106.575C157.145 106.413 157.155 106.226 157.117 106.013C157.079 105.794 156.998 105.613 156.875 105.471C156.752 105.322 156.587 105.217 156.381 105.156C156.181 105.093 155.943 105.087 155.665 105.136C155.222 105.214 154.89 105.391 154.671 105.667C154.458 105.943 154.356 106.299 154.366 106.736L153.559 106.823C153.521 106.196 153.671 105.664 154.009 105.227C154.346 104.79 154.854 104.511 155.534 104.391C155.965 104.315 156.348 104.327 156.682 104.426C157.017 104.526 157.288 104.7 157.496 104.95C157.71 105.192 157.848 105.494 157.912 105.854C157.968 106.174 157.964 106.461 157.899 106.716C157.833 106.965 157.691 107.212 157.473 107.458C157.26 107.703 156.955 107.979 156.559 108.286C156.044 108.688 155.667 109.068 155.426 109.428C155.19 109.786 155.085 110.088 155.11 110.333L158.593 109.719L158.725 110.463L154.302 111.243ZM159.603 110.308L159.427 109.307L160.428 109.13L160.605 110.132L159.603 110.308ZM163.742 109.725C163.299 109.803 162.902 109.797 162.551 109.706C162.206 109.615 161.915 109.453 161.679 109.22C161.449 108.987 161.289 108.698 161.198 108.355L161.986 108.161C162.096 108.507 162.294 108.75 162.58 108.888C162.872 109.019 163.215 109.05 163.611 108.98C164.054 108.902 164.384 108.716 164.6 108.422C164.815 108.122 164.884 107.751 164.806 107.307C164.754 107.012 164.65 106.768 164.494 106.576C164.343 106.378 164.148 106.238 163.909 106.159C163.669 106.079 163.396 106.066 163.089 106.121C162.799 106.172 162.547 106.28 162.333 106.446C162.118 106.612 161.98 106.816 161.92 107.058L161.104 107.202L160.897 103.592L164.425 102.97L164.556 103.714L161.729 104.213L161.854 106.585L161.688 106.468C161.75 106.268 161.847 106.096 161.98 105.95C162.118 105.798 162.282 105.675 162.472 105.58C162.668 105.479 162.878 105.408 163.102 105.369C163.522 105.295 163.908 105.324 164.26 105.457C164.611 105.584 164.905 105.797 165.141 106.097C165.375 106.391 165.529 106.747 165.603 107.167C165.677 107.586 165.649 107.978 165.518 108.342C165.386 108.701 165.168 109.001 164.864 109.244C164.559 109.486 164.185 109.647 163.742 109.725ZM167.639 105.547C167.243 105.617 166.892 105.541 166.585 105.321C166.283 105.094 166.087 104.73 165.999 104.227C165.909 103.719 165.968 103.31 166.175 102.999C166.388 102.687 166.693 102.497 167.089 102.427C167.49 102.356 167.842 102.431 168.143 102.652C168.444 102.873 168.639 103.238 168.729 103.746C168.817 104.248 168.758 104.658 168.552 104.974C168.345 105.285 168.041 105.476 167.639 105.547ZM167.542 104.997C167.784 104.954 167.949 104.834 168.036 104.636C168.129 104.437 168.147 104.178 168.091 103.859C168.034 103.54 167.928 103.302 167.773 103.147C167.624 102.991 167.428 102.934 167.186 102.976C166.949 103.018 166.785 103.138 166.692 103.338C166.599 103.537 166.581 103.796 166.637 104.115C166.693 104.434 166.799 104.671 166.954 104.827C167.11 104.982 167.306 105.039 167.542 104.997ZM171.822 108.227C171.426 108.297 171.075 108.222 170.768 108.002C170.466 107.775 170.27 107.41 170.182 106.908C170.092 106.4 170.151 105.99 170.358 105.68C170.571 105.368 170.876 105.177 171.272 105.107C171.673 105.036 172.025 105.111 172.326 105.333C172.627 105.554 172.822 105.918 172.912 106.426C173 106.929 172.941 107.338 172.735 107.655C172.528 107.965 172.224 108.156 171.822 108.227ZM171.725 107.678C171.967 107.635 172.132 107.514 172.219 107.316C172.311 107.117 172.33 106.858 172.274 106.539C172.217 106.22 172.111 105.983 171.956 105.827C171.807 105.671 171.611 105.614 171.369 105.657C171.132 105.698 170.968 105.819 170.875 106.018C170.782 106.217 170.764 106.476 170.82 106.795C170.876 107.114 170.982 107.352 171.137 107.507C171.293 107.662 171.489 107.719 171.725 107.678ZM167.484 108.919L170.717 101.86L171.426 101.735L168.193 108.794L167.484 108.919Z" fill="#196701"/>
<rect x="55.4658" y="247.476" width="47" height="31" rx="6" transform="rotate(-10 55.4658 247.476)" fill="url(#paint0_linear_192_23)"/>
<rect x="108.533" y="208.671" width="47" height="60" rx="6" transform="rotate(-10 108.533 208.671)" fill="url(#paint1_linear_192_23)"/>
<rect x="169.589" y="215.167" width="47" height="43" rx="6" transform="rotate(-10 169.589 215.167)" fill="url(#paint2_linear_192_23)"/>
<rect x="227.692" y="204.922" width="47" height="43" rx="6" transform="rotate(-10 227.692 204.922)" fill="url(#paint3_linear_192_23)"/>
<rect x="284.06" y="184.829" width="47" height="53" rx="6" transform="rotate(-10 284.06 184.829)" fill="url(#paint4_linear_192_23)"/>
<g clip-path="url(#clip1_192_23)">
<rect x="342.163" y="174.584" width="47" height="53" rx="6" transform="rotate(-10 342.163 174.584)" fill="url(#paint5_linear_192_23)"/>
<rect width="3.93209" height="59.5175" transform="matrix(0.47058 0.882358 -0.115755 0.993278 346.657 169.967)" fill="#1F1F1F"/>
<rect width="3.93209" height="59.5175" transform="matrix(0.47058 0.882358 -0.115755 0.993278 350.226 169.338)" fill="#1F1F1F"/>
<rect width="3.93209" height="59.5175" transform="matrix(0.47058 0.882358 -0.115755 0.993278 353.794 168.709)" fill="#1F1F1F"/>
<rect width="3.93209" height="59.5175" transform="matrix(0.47058 0.882358 -0.115755 0.993278 357.361 168.08)" fill="#1F1F1F"/>
<rect width="3.93209" height="59.5175" transform="matrix(0.47058 0.882358 -0.115755 0.993278 360.93 167.451)" fill="#1F1F1F"/>
<rect width="3.93209" height="59.5175" transform="matrix(0.47058 0.882358 -0.115755 0.993278 364.497 166.822)" fill="#1F1F1F"/>
<rect width="3.93209" height="59.5175" transform="matrix(0.47058 0.882358 -0.115755 0.993278 368.065 166.192)" fill="#1F1F1F"/>
<rect width="3.93209" height="59.5175" transform="matrix(0.47058 0.882358 -0.115755 0.993278 371.634 165.563)" fill="#1F1F1F"/>
<rect width="3.93209" height="59.5175" transform="matrix(0.47058 0.882358 -0.115755 0.993278 375.201 164.934)" fill="#1F1F1F"/>
<rect width="3.93209" height="59.5175" transform="matrix(0.47058 0.882358 -0.115755 0.993278 378.77 164.305)" fill="#1F1F1F"/>
<rect width="3.93209" height="59.5175" transform="matrix(0.47058 0.882358 -0.115755 0.993278 382.338 163.676)" fill="#1F1F1F"/>
<rect width="3.93209" height="59.5175" transform="matrix(0.47058 0.882358 -0.115755 0.993278 385.905 163.047)" fill="#1F1F1F"/>
<rect width="3.93209" height="59.5175" transform="matrix(0.47058 0.882358 -0.115755 0.993278 389.474 162.418)" fill="#1F1F1F"/>
<rect width="3.93209" height="59.5175" transform="matrix(0.47058 0.882358 -0.115755 0.993278 393.042 161.788)" fill="#1F1F1F"/>
<rect width="3.93209" height="59.5175" transform="matrix(0.47058 0.882358 -0.115755 0.993278 396.609 161.159)" fill="#1F1F1F"/>
<rect width="3.69232" height="55.8294" transform="matrix(0.489236 0.872152 -0.135411 0.99079 400.497 165.404)" fill="#1F1F1F"/>
</g>
</g>
<rect x="15.2872" y="74.3219" width="363" height="218" rx="11.5" transform="rotate(-10 15.2872 74.3219)" stroke="#DEDEDE"/>
</g>
<defs>
<filter id="filter0_d_192_23" x="-2.29199" y="-2.2916" width="430.499" height="312.881" filterUnits="userSpaceOnUse" color-interpolation-filters="sRGB">
<feFlood flood-opacity="0" result="BackgroundImageFix"/>
<feColorMatrix in="SourceAlpha" type="matrix" values="0 0 0 0 0 0 0 0 0 0 0 0 0 0 0 0 0 0 127 0" result="hardAlpha"/>
<feMorphology radius="1" operator="dilate" in="SourceAlpha" result="effect1_dropShadow_192_23"/>
<feOffset dy="4"/>
<feGaussianBlur stdDeviation="8"/>
<feComposite in2="hardAlpha" operator="out"/>
<feColorMatrix type="matrix" values="0 0 0 0 0.567007 0 0 0 0 0.567007 0 0 0 0 0.567007 0 0 0 0.25 0"/>
<feBlend mode="normal" in2="BackgroundImageFix" result="effect1_dropShadow_192_23"/>
<feBlend mode="normal" in="SourceGraphic" in2="effect1_dropShadow_192_23" result="shape"/>
</filter>
<linearGradient id="paint0_linear_192_23" x1="78.9658" y1="247.476" x2="78.9658" y2="278.476" gradientUnits="userSpaceOnUse">
<stop stop-color="#208501"/>
<stop offset="1" stop-color="#72FF48"/>
</linearGradient>
<linearGradient id="paint1_linear_192_23" x1="132.033" y1="208.671" x2="132.033" y2="268.671" gradientUnits="userSpaceOnUse">
<stop stop-color="#208501"/>
<stop offset="1" stop-color="#72FF48"/>
</linearGradient>
<linearGradient id="paint2_linear_192_23" x1="193.089" y1="215.167" x2="193.089" y2="258.167" gradientUnits="userSpaceOnUse">
<stop stop-color="#208501"/>
<stop offset="1" stop-color="#72FF48"/>
</linearGradient>
<linearGradient id="paint3_linear_192_23" x1="251.192" y1="204.922" x2="251.192" y2="247.922" gradientUnits="userSpaceOnUse">
<stop stop-color="#208501"/>
<stop offset="1" stop-color="#72FF48"/>
</linearGradient>
<linearGradient id="paint4_linear_192_23" x1="307.56" y1="184.829" x2="307.56" y2="237.829" gradientUnits="userSpaceOnUse">
<stop stop-color="#208501"/>
<stop offset="1" stop-color="#72FF48"/>
</linearGradient>
<linearGradient id="paint5_linear_192_23" x1="365.663" y1="174.584" x2="365.663" y2="227.584" gradientUnits="userSpaceOnUse">
<stop stop-color="#208501"/>
<stop offset="1" stop-color="#72FF48"/>
</linearGradient>
<clipPath id="clip0_192_23">
<rect x="14.708" y="73.9164" width="364" height="219" rx="12" transform="rotate(-10 14.708 73.9164)" fill="white"/>
</clipPath>
<clipPath id="clip1_192_23">
<rect x="342.163" y="174.584" width="47" height="53" rx="6" transform="rotate(-10 342.163 174.584)" fill="white"/>
</clipPath>
</defs>
</svg>
