<svg width="426" height="306" viewBox="0 0 426 306" fill="none" xmlns="http://www.w3.org/2000/svg">
<g filter="url(#filter0_d_192_159)">
<g clip-path="url(#clip0_192_159)">
<rect x="52.2168" y="10.7084" width="364" height="216" rx="12" transform="rotate(10 52.2168 10.7084)" fill="#F2F2F2"/>
<path d="M64.3291 36.4102C63.6293 36.2868 63.0423 36.0469 62.5684 35.6905C62.0944 35.3341 61.7444 34.8984 61.5184 34.3833C61.3025 33.8612 61.223 33.2884 61.2802 32.6648L62.446 32.7912C62.4259 33.2541 62.4905 33.6615 62.6397 34.0134C62.7888 34.3653 63.0198 34.6525 63.3326 34.8748C63.654 35.0987 64.0579 35.2535 64.5444 35.3393C64.9711 35.4145 65.3436 35.423 65.6619 35.3647C65.9802 35.3065 66.235 35.1842 66.4262 34.9979C66.626 34.8131 66.753 34.5671 66.8072 34.2598C66.8569 33.9782 66.8322 33.7186 66.7333 33.4812C66.6444 33.2367 66.428 32.9917 66.084 32.7463C65.7501 32.4938 65.2363 32.214 64.5424 31.9068C63.8741 31.6042 63.3497 31.3093 62.9691 31.0222C62.597 30.7365 62.3442 30.4236 62.2106 30.0832C62.0856 29.7443 62.0629 29.3487 62.1427 28.8964C62.233 28.3843 62.4315 27.9572 62.7382 27.6153C63.0549 27.2663 63.4583 27.025 63.9483 26.8914C64.4398 26.7493 64.997 26.7331 65.6201 26.843C66.2858 26.9604 66.8351 27.1892 67.2679 27.5296C67.7022 27.8614 68.0218 28.2697 68.2267 28.7547C68.4316 29.2396 68.5193 29.7655 68.4898 30.3323L67.324 30.206C67.3375 29.8299 67.2752 29.4845 67.1371 29.1698C67.009 28.848 66.8014 28.5782 66.5142 28.3603C66.227 28.1425 65.8572 27.9937 65.4048 27.9139C64.8415 27.8146 64.3694 27.8721 63.9883 28.0866C63.6088 28.2924 63.3807 28.613 63.3039 29.0483C63.2543 29.33 63.2769 29.576 63.3718 29.7863C63.4768 29.9896 63.6872 30.1939 64.003 30.3992C64.3203 30.596 64.7847 30.8319 65.3963 31.1069C66.1228 31.4286 66.6846 31.7609 67.0818 32.1037C67.489 32.4396 67.7564 32.7947 67.8839 33.1692C68.02 33.5452 68.0497 33.9509 67.973 34.3862C67.8797 34.9153 67.6618 35.3522 67.3195 35.6966C66.9786 36.0325 66.5504 36.265 66.0348 36.3941C65.5208 36.5147 64.9522 36.52 64.3291 36.4102ZM68.8743 38.9805L70.4093 30.2748L71.4079 30.4509L71.1762 31.9149L71.0361 31.811C71.2956 31.3375 71.6442 31.0074 72.082 30.8205C72.5298 30.6267 73.014 30.5757 73.5346 30.6675C74.2089 30.7863 74.7301 31.0498 75.0981 31.458C75.4747 31.8676 75.718 32.3593 75.8281 32.9331C75.9466 33.5085 75.951 34.1076 75.8411 34.7307C75.7312 35.3538 75.5222 35.9153 75.214 36.4154C74.9144 36.917 74.5176 37.2958 74.0236 37.552C73.5381 37.8096 72.9583 37.8789 72.284 37.76C71.9341 37.6983 71.616 37.5807 71.3298 37.407C71.0522 37.2348 70.8255 37.0232 70.6497 36.7722C70.4825 36.5227 70.3861 36.2461 70.3604 35.9424L70.5457 35.7903L69.9497 39.1701L68.8743 38.9805ZM72.3622 36.7178C72.9511 36.8216 73.4554 36.6817 73.8751 36.2981C74.2947 35.9145 74.5745 35.3258 74.7145 34.532C74.8544 33.7383 74.7929 33.0894 74.5297 32.5854C74.2666 32.0814 73.8405 31.7774 73.2516 31.6736C72.859 31.6044 72.5011 31.6381 72.1778 31.7747C71.863 31.9128 71.5914 32.1553 71.363 32.5022C71.1432 32.8507 70.9844 33.3023 70.8865 33.8571C70.7887 34.4119 70.7835 34.8906 70.8709 35.2932C70.9583 35.6958 71.1306 36.0166 71.3877 36.2555C71.6447 36.4945 71.9696 36.6486 72.3622 36.7178ZM79.2609 38.9903C78.6208 38.8774 78.0916 38.6345 77.6733 38.2615C77.2636 37.89 76.9774 37.4172 76.8146 36.8428C76.6619 36.2615 76.6488 35.6123 76.7752 34.8954C76.9016 34.1785 77.1352 33.5772 77.476 33.0917C77.8254 32.6077 78.2518 32.2605 78.7554 32.05C79.2689 31.8326 79.8372 31.7788 80.4603 31.8886C81.0492 31.9925 81.545 32.2251 81.9477 32.5865C82.3519 32.9394 82.6311 33.4023 82.7853 33.9751C82.9481 34.5494 82.9625 35.2164 82.8285 35.976L82.7721 36.296L77.8431 35.4269C77.7579 36.1599 77.8536 36.74 78.1303 37.1672C78.4155 37.5959 78.8526 37.8622 79.4415 37.9661C79.8853 38.0443 80.2661 38.0058 80.5839 37.8507C80.9117 37.6885 81.1612 37.4464 81.3323 37.1246L82.4687 37.4174C82.1827 37.9918 81.7532 38.4309 81.1804 38.7347C80.6177 39.0315 79.9778 39.1167 79.2609 38.9903ZM78.0102 34.4795L81.7613 35.141C81.826 34.4747 81.719 33.9587 81.4403 33.5927C81.1701 33.2282 80.7833 33.0016 80.2797 32.9128C79.7591 32.821 79.2995 32.9072 78.9009 33.1713C78.5123 33.4284 78.2154 33.8645 78.0102 34.4795ZM83.6252 39.6014L84.8217 32.8161L85.8075 32.9899L85.5411 34.725L85.4334 34.5872C85.5895 34.2011 85.7968 33.8988 86.0553 33.6804C86.3153 33.4535 86.606 33.3023 86.9273 33.227C87.2571 33.1531 87.597 33.147 87.947 33.2087C88.4676 33.3005 88.874 33.491 89.1663 33.7801C89.467 34.0708 89.6639 34.4267 89.7568 34.8479C89.8598 35.2621 89.8691 35.7082 89.7849 36.1861L89.0151 40.5518L87.9397 40.3621L88.6553 36.3038C88.729 35.8855 88.7395 35.5266 88.6867 35.2269C88.644 34.9201 88.5288 34.6754 88.341 34.4927C88.1547 34.3014 87.8909 34.1757 87.5495 34.1155C87.0288 34.0237 86.5685 34.1141 86.1684 34.3868C85.7783 34.6524 85.5276 35.101 85.4162 35.7326L84.7006 39.791L83.6252 39.6014ZM93.2299 41.4534C92.641 41.3495 92.1545 41.1141 91.7704 40.7472C91.3948 40.3818 91.1384 39.9141 91.0013 39.3443C90.8641 38.7745 90.8595 38.1269 90.9875 37.4014C91.1154 36.6759 91.3412 36.0689 91.665 35.5804C91.9887 35.0919 92.3896 34.7401 92.8675 34.5252C93.3539 34.3117 93.8916 34.2569 94.4805 34.3608C94.9329 34.4405 95.3295 34.6117 95.6705 34.8742C96.0129 35.1282 96.2471 35.4467 96.3732 35.8298L96.9466 32.5779L98.022 32.7675L96.4192 41.8573L95.4462 41.6858L95.5884 40.6548C95.3359 40.9887 94.9988 41.2285 94.5771 41.3741C94.157 41.5112 93.7079 41.5376 93.2299 41.4534ZM93.6282 40.4675C94.0293 40.5383 94.3845 40.4953 94.6937 40.3386C95.0115 40.1834 95.276 39.9309 95.4874 39.5809C95.7002 39.2224 95.8517 38.7871 95.942 38.275C96.0353 37.7459 96.0426 37.2807 95.9637 36.8796C95.8848 36.4785 95.7218 36.1549 95.4748 35.909C95.2378 35.656 94.9187 35.4941 94.5176 35.4234C93.9201 35.318 93.4023 35.4599 92.9641 35.8491C92.5359 36.2312 92.2525 36.8148 92.1141 37.6001C91.9771 38.3768 92.0437 39.0221 92.3139 39.5362C92.5926 40.0517 93.0307 40.3622 93.6282 40.4675Z" fill="black"/>
<circle cx="381.956" cy="87.128" r="2" transform="rotate(10 381.956 87.128)" fill="black"/>
<circle cx="387.865" cy="88.1699" r="2" transform="rotate(10 387.865 88.1699)" fill="black"/>
<circle cx="393.774" cy="89.2118" r="2" transform="rotate(10 393.774 89.2118)" fill="black"/>
<path d="M56.8957 81.2323C55.3047 77.54 54.8148 73.9605 55.4261 70.494C56.0401 67.0117 57.7247 63.8157 60.4798 60.9059L62.7015 61.2977C60.1318 64.3539 58.5496 67.568 57.9551 70.9399C57.6578 72.6259 57.6033 74.3629 57.7917 76.1507C57.9987 77.9256 58.4406 79.7501 59.1174 81.6241L56.8957 81.2323ZM66.2687 82.3976L69.9778 61.3622L71.7741 61.6789L68.065 82.7144L66.2687 82.3976ZM67.6726 80.7931C66.3648 80.5625 65.272 80.1261 64.3942 79.4839C63.5191 78.8259 62.873 78.0215 62.4558 77.0706C62.0543 76.1225 61.905 75.0807 62.0077 73.9453L64.6089 74.2578C64.5701 75.0308 64.6768 75.7157 64.929 76.3126C65.184 76.8937 65.5701 77.376 66.0873 77.7597C66.6231 78.1304 67.3006 78.3879 68.12 78.5324C68.8291 78.6574 69.451 78.6777 69.9858 78.5933C70.5233 78.4931 70.9487 78.292 71.262 77.9898C71.591 77.6903 71.8013 77.2806 71.893 76.7607C71.9763 76.288 71.9383 75.8588 71.7788 75.4733C71.6221 75.072 71.255 74.6661 70.6775 74.2555C70.1028 73.8293 69.2338 73.3674 68.0705 72.8698C66.8183 72.324 65.833 71.7848 65.1146 71.2519C64.3962 70.7191 63.9137 70.1385 63.6671 69.5101C63.439 68.8687 63.4013 68.1147 63.5541 67.2481C63.7181 66.3185 64.091 65.5394 64.673 64.9109C65.2577 64.2666 66.0024 63.8212 66.907 63.5745C67.8301 63.3149 68.8825 63.2892 70.0643 63.4976C71.3249 63.7199 72.356 64.1373 73.1579 64.7498C73.9754 65.3651 74.5734 66.1205 74.9516 67.0157C75.3299 67.911 75.4904 68.8898 75.4331 69.952L72.8318 69.6395C72.8614 69.0111 72.7617 68.4249 72.5327 67.8808C72.3194 67.3396 71.9685 66.8878 71.48 66.5255C70.9943 66.1474 70.3733 65.8916 69.6169 65.7583C68.6715 65.5916 67.8842 65.6802 67.2549 66.0242C66.6256 66.3681 66.2471 66.9025 66.1193 67.6273C66.0359 68.1 66.0767 68.5134 66.2418 68.8674C66.4226 69.2242 66.7757 69.5708 67.3013 69.9072C67.8426 70.2464 68.6268 70.6365 69.6538 71.0775C71.0136 71.6584 72.0694 72.2589 72.8211 72.8789C73.5757 73.4831 74.0786 74.1323 74.3299 74.8264C74.5811 75.5206 74.6359 76.2695 74.4942 77.0731C74.322 78.05 73.9198 78.8565 73.2878 79.4924C72.6586 80.1125 71.8601 80.5404 70.8925 80.7759C69.9277 80.9957 68.8544 81.0014 67.6726 80.7931ZM83.9822 83.3277L84.599 79.8297L76.1375 78.3377L76.5209 76.1632L86.6339 66.4924L89.4937 66.9967L87.56 77.9635L89.6163 78.3261L89.2079 80.6423L87.1516 80.2798L86.5348 83.7778L83.9822 83.3277ZM79.4531 76.534L85.0074 77.5134L86.316 70.0919L79.4531 76.534ZM90.0617 88.2258L91.8978 84.7234L90.5979 84.4942L91.123 81.5162L94.1719 82.0538L93.7093 84.6773L91.5035 88.48L90.0617 88.2258ZM101.992 86.8932C100.747 86.6737 99.7181 86.2892 98.9052 85.7397C98.095 85.1744 97.5017 84.4849 97.1253 83.6712C96.7489 82.8575 96.6046 81.971 96.6926 81.0116L99.3453 81.3088C99.3157 82.2134 99.5693 82.9405 100.106 83.49C100.661 84.0266 101.427 84.381 102.404 84.5533C103.507 84.7478 104.428 84.5933 105.167 84.0899C105.921 83.5893 106.396 82.7875 106.59 81.6846C106.718 80.9597 106.678 80.3109 106.47 79.7382C106.281 79.1524 105.944 78.6705 105.458 78.2924C104.975 77.8986 104.363 77.6364 103.623 77.5058C102.882 77.3752 102.192 77.4161 101.554 77.6284C100.915 77.8407 100.421 78.2004 100.072 78.7075L97.4249 78.2407L100.243 68.8921L110.075 70.6258L109.663 72.9657L102.099 71.632L100.378 77.2504L100.038 76.825C100.39 76.3996 100.796 76.0733 101.259 75.8461C101.724 75.6032 102.239 75.4502 102.802 75.3871C103.384 75.311 103.982 75.3272 104.597 75.4355C105.731 75.6356 106.673 76.0534 107.422 76.6892C108.187 77.3276 108.729 78.1219 109.049 79.0719C109.369 80.0219 109.432 81.0483 109.237 82.1513C109.034 83.3016 108.595 84.2721 107.92 85.0628C107.244 85.8535 106.398 86.4111 105.383 86.7356C104.367 87.0602 103.237 87.1127 101.992 86.8932ZM117.44 89.6172C116.054 89.3727 114.911 88.8056 114.012 87.916C113.113 87.0263 112.503 85.879 112.182 84.4739C111.861 83.0688 111.859 81.4682 112.175 79.6719C112.492 77.8756 113.042 76.3721 113.824 75.1616C114.624 73.938 115.591 73.0606 116.725 72.5293C117.877 71.9851 119.146 71.8353 120.533 72.0798C121.935 72.327 123.077 72.902 123.957 73.8046C124.856 74.6943 125.466 75.8416 125.787 77.2467C126.124 78.6546 126.133 80.2645 125.813 82.0765C125.496 83.8728 124.947 85.3763 124.165 86.5868C123.383 87.7974 122.417 88.667 121.268 89.1954C120.119 89.7239 118.843 89.8645 117.44 89.6172ZM117.853 87.2773C119.192 87.5135 120.322 87.144 121.241 86.1688C122.16 85.1936 122.802 83.6739 123.166 81.6098C123.41 80.2232 123.452 79.0201 123.291 78.0006C123.145 76.9838 122.8 76.1757 122.256 75.5761C121.73 74.9635 121.018 74.578 120.12 74.4197C119.238 74.2641 118.437 74.3828 117.718 74.7759C117.017 75.156 116.417 75.7975 115.916 76.7003C115.432 77.6059 115.067 78.752 114.823 80.1386C114.459 82.2028 114.542 83.8503 115.072 85.081C115.602 86.3118 116.529 87.0439 117.853 87.2773ZM133.272 92.4087C131.885 92.1642 130.742 91.5971 129.843 90.7074C128.944 89.8178 128.334 88.6704 128.013 87.2653C127.692 85.8603 127.69 84.2596 128.007 82.4633C128.323 80.667 128.873 79.1636 129.655 77.953C130.455 76.7294 131.422 75.852 132.556 75.3208C133.708 74.7766 134.977 74.6267 136.364 74.8712C137.766 75.1185 138.908 75.6934 139.788 76.5961C140.688 77.4857 141.298 78.6331 141.618 80.0382C141.955 81.446 141.964 83.0559 141.644 84.868C141.327 86.6643 140.778 88.1677 139.996 89.3783C139.214 90.5889 138.248 91.4584 137.099 91.9869C135.95 92.5153 134.674 92.6559 133.272 92.4087ZM133.684 90.0688C135.023 90.3049 136.153 89.9354 137.072 88.9602C137.991 87.9851 138.633 86.4654 138.997 84.4012C139.241 83.0146 139.283 81.8116 139.122 80.792C138.976 79.7753 138.631 78.9671 138.087 78.3675C137.561 77.7549 136.849 77.3695 135.951 77.2111C135.069 77.0555 134.268 77.1743 133.549 77.5674C132.848 77.9475 132.248 78.5889 131.747 79.4918C131.263 80.3974 130.898 81.5435 130.654 82.9301C130.29 84.9942 130.373 86.6417 130.903 87.8725C131.434 89.1033 132.361 89.8354 133.684 90.0688ZM142.86 96.3901L140.638 95.9984C141.915 94.4689 142.946 92.9042 143.732 91.3044C144.536 89.6915 145.087 88.0421 145.385 86.3561C145.979 82.9841 145.592 79.4227 144.222 75.672L146.444 76.0637C148.038 79.7403 148.528 83.3198 147.914 86.802C147.302 90.2686 145.618 93.4646 142.86 96.3901Z" fill="black"/>
<path d="M164.813 91.9953L169.858 88.3156L161.33 86.8117L164.813 91.9953Z" fill="#2AB300"/>
<path d="M172.595 93.8754C172.673 93.4322 172.811 93.0453 173.01 92.7148C173.215 92.3793 173.521 92.0799 173.927 91.8164C174.339 91.5539 174.887 91.3124 175.572 91.092C175.888 90.9894 176.147 90.8887 176.347 90.79C176.547 90.6912 176.701 90.5753 176.81 90.4422C176.919 90.309 176.992 90.1361 177.03 89.9234C177.068 89.7048 177.054 89.5074 176.988 89.3311C176.923 89.149 176.804 88.994 176.631 88.8661C176.465 88.7393 176.243 88.6514 175.965 88.6024C175.522 88.5243 175.15 88.5775 174.849 88.7621C174.554 88.9478 174.337 89.2476 174.197 89.6615L173.409 89.4677C173.588 88.8657 173.911 88.4169 174.377 88.1214C174.844 87.8259 175.417 87.7381 176.096 87.8579C176.527 87.934 176.883 88.0759 177.163 88.2837C177.444 88.4915 177.639 88.7483 177.75 89.0542C177.867 89.3552 177.894 89.6859 177.83 90.0463C177.774 90.3654 177.672 90.6337 177.524 90.8513C177.377 91.063 177.159 91.2469 176.869 91.403C176.586 91.5602 176.205 91.7154 175.727 91.8688C175.107 92.0701 174.622 92.2983 174.272 92.5535C173.928 92.8097 173.726 93.0574 173.666 93.2965L177.149 93.9107L177.018 94.6552L172.595 93.8754ZM177.897 94.8102L178.073 93.8086L179.075 93.9852L178.898 94.9868L177.897 94.8102ZM181.986 95.6774C181.542 95.5993 181.171 95.4577 180.872 95.2527C180.579 95.0487 180.362 94.7971 180.22 94.4978C180.083 94.1996 180.031 93.8736 180.063 93.5198L180.87 93.6073C180.855 93.9701 180.958 94.2655 181.18 94.4935C181.409 94.7166 181.721 94.8631 182.117 94.9329C182.56 95.011 182.933 94.9489 183.237 94.7466C183.542 94.5384 183.733 94.2127 183.812 93.7695C183.864 93.4741 183.849 93.2096 183.769 92.976C183.695 92.7376 183.559 92.54 183.362 92.3833C183.164 92.2266 182.911 92.1211 182.604 92.0669C182.314 92.0159 182.041 92.0316 181.782 92.114C181.524 92.1964 181.325 92.341 181.185 92.5478L180.369 92.404L181.41 88.941L184.937 89.563L184.806 90.3076L181.979 89.809L181.285 92.0812L181.169 91.9144C181.295 91.7479 181.446 91.6191 181.621 91.528C181.802 91.432 181.998 91.3722 182.21 91.3486C182.428 91.32 182.649 91.3255 182.874 91.3651C183.293 91.4391 183.646 91.5988 183.932 91.8441C184.219 92.0836 184.421 92.3844 184.54 92.7465C184.66 93.1027 184.683 93.4906 184.609 93.9102C184.535 94.3297 184.375 94.6882 184.127 94.9858C183.881 95.2774 183.573 95.4851 183.204 95.6089C182.835 95.7327 182.429 95.7555 181.986 95.6774ZM187.076 93.084C186.68 93.0141 186.376 92.8234 186.163 92.5116C185.956 92.195 185.898 91.7856 185.986 91.2833C186.076 90.7752 186.271 90.4106 186.572 90.1895C186.879 89.9694 187.23 89.8943 187.626 89.9641C188.028 90.0349 188.332 90.2257 188.54 90.5364C188.747 90.8471 188.806 91.2565 188.716 91.7647C188.628 92.2669 188.432 92.6316 188.13 92.8586C187.829 93.0797 187.478 93.1548 187.076 93.084ZM187.173 92.5344C187.415 92.5771 187.611 92.5203 187.761 92.3639C187.916 92.2085 188.022 91.9712 188.078 91.6522C188.134 91.3331 188.116 91.074 188.023 90.8748C187.936 90.6767 187.772 90.5563 187.529 90.5136C187.293 90.4719 187.097 90.5288 186.942 90.6842C186.786 90.8396 186.681 91.0768 186.624 91.3959C186.568 91.7149 186.586 91.9741 186.679 92.1732C186.772 92.3723 186.937 92.4928 187.173 92.5344ZM190.09 97.0333C189.694 96.9635 189.39 96.7727 189.177 96.461C188.97 96.1444 188.912 95.735 189 95.2327C189.09 94.7246 189.285 94.3599 189.586 94.1388C189.893 93.9188 190.244 93.8436 190.64 93.9135C191.042 93.9843 191.346 94.1751 191.554 94.4858C191.761 94.7965 191.82 95.2059 191.73 95.7141C191.641 96.2163 191.446 96.5809 191.144 96.808C190.843 97.029 190.492 97.1042 190.09 97.0333ZM190.187 96.4838C190.429 96.5265 190.625 96.4697 190.774 96.3132C190.93 96.1579 191.036 95.9206 191.092 95.6015C191.148 95.2825 191.13 95.0234 191.037 94.8242C190.95 94.6261 190.786 94.5057 190.543 94.463C190.307 94.4213 190.111 94.4782 189.956 94.6335C189.8 94.7889 189.695 95.0262 189.638 95.3452C189.582 95.6643 189.6 95.9234 189.693 96.1226C189.786 96.3217 189.951 96.4421 190.187 96.4838ZM185.777 96.1998L191.23 90.6726L191.939 90.7976L186.486 96.3248L185.777 96.1998Z" fill="#196701"/>
<g clip-path="url(#clip1_192_159)">
<rect width="338" height="94" transform="translate(44.5859 123.091) rotate(10)" fill="#F2F2F2"/>
<path d="M43.7731 169.373L42.5946 169.165C39.7913 168.671 38.3897 168.423 37.2674 168.928C36.8073 169.134 36.3904 169.426 36.0388 169.788C35.1811 170.67 34.934 172.072 34.4397 174.875L27.1047 216.474L362.924 275.688L372.371 222.114C372.537 221.173 372.62 220.703 372.591 220.23C372.562 219.758 372.422 219.301 372.143 218.388L372.143 218.388L367.801 204.174L367.801 204.173C367.452 203.032 367.278 202.461 366.952 201.972C366.625 201.483 366.165 201.103 365.245 200.343L363.24 198.687L363.237 198.684C363.211 198.663 363.198 198.652 363.184 198.641C362.664 198.203 362.264 197.64 362.022 197.004C362.015 196.988 362.009 196.97 361.996 196.936L361.994 196.93C361.882 196.627 361.825 196.475 361.792 196.397C360.374 193.02 355.54 193.168 354.329 196.625C354.301 196.705 354.254 196.861 354.16 197.171L354.159 197.175L351.67 205.39C350.8 208.262 350.364 209.699 349.354 210.48C348.933 210.806 348.45 211.045 347.935 211.182C346.701 211.51 345.295 210.984 342.484 209.932L340.637 209.241C338.66 208.501 337.672 208.131 337.007 207.371C336.343 206.611 336.109 205.582 335.64 203.524L334.707 199.425C334.676 199.287 334.633 199.152 334.578 199.022C333.935 197.482 331.98 197.012 330.707 198.091L327.051 201.189L327.051 201.189C325.596 202.422 324.869 203.038 324.101 203.281C323.049 203.613 321.906 203.495 320.943 202.956C320.24 202.562 319.654 201.811 318.48 200.308L317.201 198.67C316.963 198.365 316.844 198.213 316.742 198.052C316.5 197.673 316.324 197.255 316.221 196.817C316.177 196.631 316.151 196.44 316.099 196.057L316.098 196.056L315.891 194.538L315.891 194.534C315.869 194.376 315.858 194.296 315.847 194.232C315.449 191.892 313.114 190.412 310.829 191.049C310.766 191.067 310.688 191.091 310.533 191.14C310.478 191.158 310.45 191.166 310.423 191.175C309.505 191.478 308.728 192.103 308.236 192.935C308.226 192.952 308.216 192.969 308.201 192.995L308.178 193.035L304.73 199.047L301.22 206.588L301.22 206.589C300.999 207.064 300.888 207.302 300.809 207.551C300.731 207.8 300.685 208.059 300.594 208.575L300.023 211.816C299.649 213.938 299.462 214.998 298.859 215.778C298.606 216.106 298.303 216.393 297.962 216.628C297.15 217.187 296.081 217.316 293.942 217.573C291.167 217.908 289.779 218.075 288.698 217.527C288.247 217.299 287.844 216.987 287.509 216.609C286.706 215.701 286.516 214.316 286.138 211.547L285.15 204.309C284.936 202.741 284.828 201.958 284.448 201.287C284.067 200.616 283.448 200.123 282.211 199.137L278.385 196.086C277.795 195.615 277.5 195.38 277.196 195.214C276.203 194.671 275.028 194.574 273.96 194.946C273.633 195.061 273.303 195.244 272.644 195.612L267.236 198.626C265.597 199.539 263.633 198.141 263.959 196.294C264.103 195.476 263.78 194.646 263.121 194.14L259.002 190.984L257.07 189.658C255.44 188.539 254.624 187.98 253.796 187.824C252.803 187.637 251.776 187.833 250.921 188.372C250.209 188.822 249.657 189.643 248.553 191.283L248.552 191.284C248.362 191.567 248.267 191.708 248.16 191.84C248.033 191.999 247.893 192.148 247.742 192.286C247.617 192.4 247.482 192.504 247.212 192.712L247.211 192.713L239.195 198.881C238.61 199.332 238.317 199.557 238.002 199.72C237.436 200.014 236.808 200.168 236.17 200.17C235.815 200.171 235.451 200.107 234.724 199.979L231.084 199.337C229.99 199.144 229.26 198.101 229.453 197.007C229.646 195.913 228.915 194.87 227.821 194.677L224.738 194.133C223.325 193.884 221.979 194.827 221.73 196.239C221.576 197.114 220.985 197.849 220.164 198.188L213.682 200.863C212.819 201.22 212.387 201.398 211.93 201.472C211.473 201.546 211.007 201.514 210.075 201.449L184.276 199.654C181.475 199.46 180.074 199.362 179.078 198.525C178.081 197.689 177.743 196.326 177.067 193.601L175.357 186.711L175.357 186.711C175.228 186.192 175.164 185.933 175.134 185.67C175.112 185.466 175.104 185.262 175.113 185.057C175.124 184.793 175.171 184.529 175.264 184.003L175.434 183.039C175.57 182.263 175.639 181.875 175.637 181.517C175.632 180.325 175.096 179.197 174.174 178.441C173.897 178.213 173.553 178.022 172.864 177.639L172.864 177.639C171.862 177.081 171.361 176.802 170.902 176.674C169.356 176.245 167.704 176.781 166.705 178.035C166.407 178.408 166.165 178.928 165.681 179.967L165.681 179.968L164.401 182.717C164.272 182.995 164.208 183.134 164.133 183.267C164.075 183.37 164.012 183.471 163.945 183.568C163.859 183.694 163.763 183.813 163.572 184.052L163.571 184.052C161.947 186.073 161.135 187.083 160.123 187.469C159.349 187.764 158.503 187.812 157.701 187.606C156.651 187.336 155.731 186.424 153.889 184.6L153.416 184.132C152.07 182.799 151.398 182.133 150.562 181.833C150.257 181.724 149.939 181.652 149.616 181.619C148.733 181.53 147.839 181.842 146.051 182.466L141.76 183.964C139.283 184.828 138.045 185.26 136.859 184.946C135.673 184.631 134.812 183.642 133.09 181.663L129.997 178.111C129.646 177.708 129.471 177.506 129.324 177.284C129.177 177.062 129.061 176.821 128.829 176.341L127.06 172.683C126.592 171.715 126.358 171.232 126.013 170.832C125.953 170.763 125.89 170.696 125.826 170.631C125.453 170.256 124.989 169.986 124.06 169.446L123.679 169.225C121.556 167.992 120.494 167.375 119.398 167.385C118.936 167.389 118.477 167.473 118.043 167.634C117.016 168.014 116.243 168.968 114.697 170.875L114.697 170.875L111.419 174.918C110.221 176.396 107.955 176.361 106.803 174.847C106.017 173.813 104.644 173.419 103.429 173.879L99.0551 175.533C98.5833 175.711 98.3473 175.8 98.125 175.918C97.9027 176.036 97.6964 176.181 97.2838 176.471L97.2837 176.471L82.745 186.692C82.2989 187.006 82.0758 187.163 81.8343 187.287C81.5928 187.412 81.3359 187.503 80.822 187.686L80.8219 187.686L79.9583 187.993C78.0607 188.667 77.1119 189.004 76.1535 188.876C75.1952 188.747 74.3684 188.173 72.7147 187.024L61.5429 179.259C61.2971 179.088 61.1742 179.003 61.06 178.91C60.6223 178.556 60.2645 178.113 60.0099 177.61C59.9434 177.479 59.8857 177.341 59.7704 177.065L59.4423 176.28L59.4422 176.279C59.3291 176.009 59.2725 175.873 59.2197 175.765C58.2451 173.776 55.8399 172.958 53.8546 173.94C53.7471 173.993 53.6196 174.066 53.3647 174.212L53.3646 174.212L53.3644 174.212C53.1217 174.351 53.0003 174.42 52.8964 174.472C50.9839 175.422 48.662 174.702 47.6223 172.837C47.5658 172.735 47.5049 172.61 47.3831 172.358L47.1885 171.955C47.0364 171.641 46.9604 171.484 46.8761 171.341C46.3405 170.433 45.4685 169.774 44.4495 169.506C44.2893 169.464 44.1172 169.433 43.7731 169.373Z" fill="url(#paint0_linear_192_159)" stroke="#196701"/>
</g>
<circle cx="371.547" cy="215.267" r="2" transform="rotate(10 371.547 215.267)" fill="#196701"/>
</g>
<rect x="52.6224" y="11.2876" width="363" height="215" rx="11.5" transform="rotate(10 52.6224 11.2876)" stroke="#DEDEDE"/>
</g>
<defs>
<filter id="filter0_d_192_159" x="-2.29102" y="-2.2916" width="429.978" height="309.926" filterUnits="userSpaceOnUse" color-interpolation-filters="sRGB">
<feFlood flood-opacity="0" result="BackgroundImageFix"/>
<feColorMatrix in="SourceAlpha" type="matrix" values="0 0 0 0 0 0 0 0 0 0 0 0 0 0 0 0 0 0 127 0" result="hardAlpha"/>
<feMorphology radius="1" operator="dilate" in="SourceAlpha" result="effect1_dropShadow_192_159"/>
<feOffset dy="4"/>
<feGaussianBlur stdDeviation="8"/>
<feComposite in2="hardAlpha" operator="out"/>
<feColorMatrix type="matrix" values="0 0 0 0 0.567007 0 0 0 0 0.567007 0 0 0 0 0.567007 0 0 0 0.25 0"/>
<feBlend mode="normal" in2="BackgroundImageFix" result="effect1_dropShadow_192_159"/>
<feBlend mode="normal" in="SourceGraphic" in2="effect1_dropShadow_192_159" result="shape"/>
</filter>
<linearGradient id="paint0_linear_192_159" x1="203.581" y1="200.374" x2="195.594" y2="245.675" gradientUnits="userSpaceOnUse">
<stop stop-color="#72FF48"/>
<stop offset="1" stop-color="#F5FCF2"/>
</linearGradient>
<clipPath id="clip0_192_159">
<rect x="52.2168" y="10.7084" width="364" height="216" rx="12" transform="rotate(10 52.2168 10.7084)" fill="white"/>
</clipPath>
<clipPath id="clip1_192_159">
<rect width="338" height="94" fill="white" transform="translate(44.5859 123.091) rotate(10)"/>
</clipPath>
</defs>
</svg>
