<svg width="422" height="298" viewBox="0 0 422 298" fill="none" xmlns="http://www.w3.org/2000/svg">
<g filter="url(#filter0_d_192_94)">
<g clip-path="url(#clip0_192_94)">
<rect x="45.5371" y="11.0578" width="364" height="219" rx="12" transform="rotate(8 45.5371 11.0578)" fill="#F2F2F2"/>
<path d="M56.5585 36.0429C55.8547 35.944 55.2598 35.7247 54.7736 35.3851C54.2875 35.0455 53.9225 34.6222 53.6787 34.1153C53.4447 33.6011 53.3453 33.0314 53.3807 32.4062L54.5501 32.4918C54.5463 32.9551 54.625 33.36 54.7864 33.7065C54.9477 34.053 55.1886 34.3319 55.509 34.5432C55.8379 34.7557 56.247 34.8964 56.7362 34.9651C57.1653 35.0254 57.5379 35.0209 57.854 34.9516C58.17 34.8822 58.4204 34.7511 58.605 34.5583C58.7982 34.3666 58.9165 34.1163 58.96 33.8073C58.9998 33.5241 58.9661 33.2656 58.8589 33.0317C58.7616 32.7905 58.5367 32.5532 58.1844 32.3199C57.8419 32.0793 57.3186 31.8175 56.6144 31.5348C55.936 31.2557 55.4016 30.9793 55.0112 30.7056C54.6294 30.4331 54.3658 30.1292 54.2204 29.7937C54.0836 29.4594 54.0472 29.0648 54.1111 28.6099C54.1835 28.095 54.367 27.6613 54.6615 27.3089C54.9659 26.9491 55.3606 26.6939 55.8456 26.5432C56.3319 26.384 56.8882 26.3484 57.5147 26.4365C58.1841 26.5306 58.7411 26.7401 59.1855 27.0651C59.6311 27.3816 59.9648 27.7785 60.1865 28.256C60.4082 28.7335 60.5142 29.256 60.5044 29.8235L59.335 29.7379C59.3353 29.3617 59.261 29.0186 59.112 28.7089C58.9728 28.3918 58.7559 28.1294 58.4612 27.9217C58.1666 27.714 57.7919 27.5782 57.337 27.5142C56.7706 27.4346 56.3007 27.5086 55.9274 27.7362C55.5553 27.9552 55.3385 28.2836 55.277 28.7213C55.2372 29.0045 55.2684 29.2496 55.3706 29.4565C55.4825 29.656 55.6999 29.8528 56.0227 30.047C56.3467 30.2325 56.8191 30.4521 57.4399 30.7056C58.1771 31.0018 58.7502 31.3142 59.1591 31.643C59.5778 31.9644 59.8574 32.31 59.998 32.6798C60.1471 33.0509 60.1909 33.4552 60.1294 33.8929C60.0547 34.425 59.8522 34.8692 59.5221 35.2254C59.1932 35.573 58.7733 35.8203 58.2626 35.9673C57.753 36.1057 57.185 36.1309 56.5585 36.0429ZM61.1906 38.453L62.4208 29.699L63.425 29.8401L63.2445 31.3113L63.1008 31.2124C63.3437 30.7302 63.6805 30.388 64.1115 30.1861C64.5523 29.9767 65.0344 29.9088 65.5579 29.9824C66.2359 30.0777 66.766 30.3228 67.1481 30.7178C67.5387 31.1141 67.799 31.597 67.929 32.1666C68.0676 32.7375 68.0929 33.3361 68.0048 33.9627C67.9168 34.5892 67.7275 35.1577 67.4369 35.6682C67.1549 36.18 66.7716 36.5724 66.2869 36.8456C65.8107 37.12 65.2336 37.2096 64.5556 37.1143C64.2037 37.0648 63.8818 36.9583 63.5897 36.7948C63.3062 36.6324 63.0722 36.4288 62.8878 36.1841C62.712 35.9406 62.606 35.6675 62.5698 35.3649L62.7496 35.2064L62.2719 38.605L61.1906 38.453ZM64.5974 36.0699C65.1895 36.1532 65.6886 35.9958 66.0947 35.5977C66.5007 35.1997 66.7598 34.6016 66.8719 33.8034C66.9841 33.0053 66.8999 32.3589 66.6193 31.8644C66.3388 31.3699 65.9024 31.081 65.3102 30.9978C64.9154 30.9423 64.5589 30.9885 64.2405 31.1363C63.9308 31.2853 63.6678 31.5371 63.4517 31.8918C63.2441 32.2477 63.1012 32.7046 63.0228 33.2625C62.9444 33.8203 62.9559 34.2989 63.0573 34.6983C63.1587 35.0976 63.342 35.4122 63.6073 35.642C63.8726 35.8718 64.2026 36.0145 64.5974 36.0699ZM71.5712 38.1003C70.9275 38.0098 70.3901 37.7855 69.9591 37.4274C69.5367 37.0704 69.2341 36.6078 69.0514 36.0395C68.8785 35.4639 68.8427 34.8156 68.9441 34.0947C69.0454 33.3737 69.2579 32.7647 69.5815 32.2676C69.9138 31.7717 70.3279 31.4098 70.8237 31.1819C71.3294 30.9467 71.8955 30.8731 72.522 30.9611C73.1142 31.0443 73.6178 31.2595 74.0329 31.6067C74.4491 31.9452 74.7443 32.3981 74.9184 32.9651C75.1011 33.5334 75.1388 34.1995 75.0314 34.9633L74.9862 35.2851L70.0299 34.5886C69.9703 35.3241 70.0862 35.9005 70.3776 36.3178C70.6776 36.7363 71.1237 36.9872 71.7159 37.0704C72.1622 37.1331 72.5414 37.0814 72.8536 36.9152C73.1755 36.7417 73.4164 36.4911 73.5762 36.1635L74.7222 36.4164C74.4563 37.0004 74.0425 37.4542 73.4806 37.7779C72.9286 38.0941 72.2921 38.2016 71.5712 38.1003ZM70.1638 33.6359L73.9357 34.1661C73.9771 33.498 73.8521 32.9859 73.5608 32.6299C73.2781 32.2751 72.8836 32.0622 72.3773 31.991C71.8537 31.9174 71.3974 32.0196 71.0083 32.2975C70.6289 32.568 70.3474 33.0141 70.1638 33.6359ZM75.9542 38.5587L76.9131 31.7358L77.9043 31.8751L77.6987 33.6184L77.5862 33.4845C77.7288 33.0932 77.9254 32.7839 78.1761 32.5565C78.4281 32.3207 78.7133 32.1594 79.0318 32.0729C79.3588 31.9876 79.6983 31.9697 80.0502 32.0191C80.5737 32.0927 80.9865 32.2689 81.2887 32.5476C81.5994 32.8276 81.8085 33.1764 81.9161 33.5942C82.0335 34.0045 82.0584 34.4499 81.9909 34.9306L81.3739 39.3204L80.2925 39.1684L80.8661 35.0875C80.9252 34.667 80.9231 34.3079 80.8599 34.0102C80.8065 33.7051 80.6828 33.4646 80.4888 33.2885C80.2959 33.1039 80.0278 32.9875 79.6846 32.9392C79.161 32.8656 78.7041 32.9721 78.3138 33.2585C77.9332 33.5376 77.6983 33.9947 77.6091 34.6298L77.0355 38.7107L75.9542 38.5587ZM85.6176 40.0744C85.0255 39.9911 84.531 39.7729 84.1343 39.4196C83.7462 39.0675 83.4737 38.6091 83.3168 38.0444C83.1598 37.4797 83.1326 36.8326 83.2351 36.1031C83.3377 35.3736 83.5422 34.7591 83.8487 34.2596C84.1552 33.7601 84.5435 33.3945 85.0136 33.163C85.4923 32.9328 86.0278 32.8592 86.62 32.9425C87.0748 33.0064 87.4772 33.1636 87.8271 33.414C88.1782 33.6559 88.4234 33.9661 88.5627 34.3445L89.0223 31.0746L90.1037 31.2266L88.8191 40.3668L87.8407 40.2293L87.9468 39.194C87.7062 39.5365 87.3776 39.7879 86.9613 39.9481C86.5461 40.0998 86.0983 40.1419 85.6176 40.0744ZM85.9812 39.0752C86.3846 39.1319 86.7381 39.0766 87.0417 38.9092C87.3538 38.743 87.6094 38.4814 87.8084 38.1243C88.0085 37.7586 88.1448 37.3183 88.2172 36.8033C88.292 36.2712 88.2829 35.8061 88.1901 35.408C88.0973 35.0098 87.9231 34.6922 87.6677 34.455C87.422 34.2104 87.0974 34.0598 86.6941 34.0031C86.0933 33.9187 85.5807 34.0785 85.1564 34.4828C84.7418 34.8796 84.479 35.4728 84.368 36.2624C84.2582 37.0433 84.3473 37.686 84.6353 38.1903C84.9318 38.6958 85.3805 38.9908 85.9812 39.0752Z" fill="black"/>
<circle cx="379.723" cy="76.2015" r="2" transform="rotate(8 379.723 76.2015)" fill="black"/>
<circle cx="385.664" cy="77.0365" r="2" transform="rotate(8 385.664 77.0365)" fill="black"/>
<circle cx="391.605" cy="77.8716" r="2" transform="rotate(8 391.605 77.8716)" fill="black"/>
<path d="M50.6938 81.0972C48.975 77.4626 48.3605 73.9024 48.8503 70.4166C49.3425 66.9151 50.9145 63.6622 53.5664 60.658L55.8004 60.972C53.3389 64.116 51.8699 67.3834 51.3933 70.774C51.1551 72.4694 51.1613 74.2072 51.412 75.9874C51.6807 77.754 52.186 79.5619 52.9279 81.4111L50.6938 81.0972ZM60.1018 81.9346L63.0745 60.7825L64.8808 61.0364L61.908 82.1885L60.1018 81.9346ZM61.4489 80.282C60.1338 80.0972 59.0264 79.6992 58.1267 79.0881C57.2293 78.4611 56.5554 77.6797 56.1053 76.7439C55.671 75.8104 55.4854 74.7745 55.5484 73.6362L58.159 73.8576C58.1472 74.6315 58.2777 75.3123 58.5505 75.9C58.8256 76.4719 59.2283 76.9405 59.7586 77.3058C60.307 77.6576 60.9932 77.8913 61.8171 78.0071C62.5301 78.1073 63.1523 78.1059 63.6838 78.0029C64.2176 77.884 64.6357 77.6681 64.9382 77.3552C65.2565 77.0445 65.4524 76.6277 65.5259 76.1048C65.5927 75.6295 65.5397 75.2019 65.3669 74.8222C65.1963 74.4266 64.8152 74.0337 64.2238 73.6436C63.6345 73.2377 62.75 72.8064 61.57 72.3497C60.2995 71.848 59.296 71.3434 58.5594 70.836C57.8229 70.3285 57.3204 69.7651 57.052 69.1457C56.8016 68.5127 56.7377 67.7605 56.8602 66.8891C56.9916 65.9543 57.3371 65.1626 57.8968 64.5142C58.4587 63.85 59.1874 63.3788 60.0828 63.1007C60.9963 62.809 62.0472 62.7466 63.2355 62.9137C64.503 63.0918 65.5482 63.473 66.3709 64.0571C67.2094 64.6436 67.8333 65.3775 68.2426 66.2591C68.6519 67.1406 68.8465 68.1132 68.8263 69.1767L66.2157 68.9552C66.2233 68.3262 66.1032 67.7438 65.8553 67.2081C65.6233 66.6746 65.2569 66.2353 64.756 65.8902C64.2574 65.5293 63.6278 65.2954 62.8673 65.1886C61.9166 65.0549 61.1329 65.171 60.516 65.5367C59.8991 65.9024 59.5394 66.4497 59.437 67.1785C59.3702 67.6538 59.4254 68.0655 59.6027 68.4136C59.7958 68.7639 60.1609 69.0979 60.6979 69.4158C61.2507 69.7358 62.048 70.0983 63.0898 70.5032C64.469 71.0364 65.5451 71.5996 66.3181 72.193C67.0932 72.7705 67.6185 73.4017 67.8938 74.0867C68.1692 74.7717 68.2501 75.5182 68.1365 76.3263C67.9984 77.3086 67.6247 78.1286 67.0152 78.7862C66.408 79.4279 65.625 79.8834 64.6662 80.1525C63.7097 80.4059 62.6372 80.449 61.4489 80.282ZM77.8369 82.2459L78.3313 78.7285L69.8229 77.5327L70.1302 75.3462L79.8995 65.3283L82.7752 65.7325L81.2254 76.7601L83.2931 77.0507L82.9657 79.3798L80.898 79.0892L80.4037 82.6067L77.8369 82.2459ZM73.0735 75.6144L78.6586 76.3994L79.7074 68.9367L73.0735 75.6144ZM84.0837 86.9289L85.7965 83.3646L84.4893 83.1809L84.9102 80.1863L87.976 80.6172L87.6053 83.2552L85.5335 87.1326L84.0837 86.9289ZM95.96 85.1807C94.7083 85.0048 93.6666 84.6565 92.835 84.1356C92.0056 83.599 91.3886 82.9306 90.9841 82.1305C90.5795 81.3304 90.4044 80.4495 90.4588 79.4877L93.1202 79.6921C93.1223 80.5972 93.4011 81.315 93.9567 81.8455C94.5303 82.3623 95.3083 82.6898 96.2907 82.8279C97.3998 82.9837 98.3146 82.7972 99.0352 82.2684C99.7717 81.7417 100.218 80.9239 100.374 79.8148C100.476 79.0859 100.414 78.4389 100.186 77.8738C99.9766 77.295 99.6225 76.8251 99.1239 76.4642C98.6275 76.0875 98.0069 75.8468 97.2623 75.7421C96.5176 75.6375 95.8298 75.7024 95.1991 75.9369C94.5683 76.1714 94.0872 76.5481 93.7557 77.067L91.0939 76.6929L93.5841 67.2516L103.471 68.6411L103.14 70.994L95.535 69.9251L94.0104 75.6002L93.6564 75.1869C93.9926 74.7494 94.3878 74.4091 94.8421 74.1659C95.2986 73.907 95.8073 73.7361 96.3683 73.6534C96.9473 73.557 97.5458 73.5523 98.1637 73.6391C99.3045 73.7994 100.26 74.1842 101.031 74.7934C101.818 75.4048 102.387 76.1796 102.74 77.1179C103.093 78.0561 103.191 79.0798 103.036 80.1889C102.873 81.3455 102.468 82.3307 101.82 83.1445C101.173 83.9583 100.347 84.5451 99.3433 84.9049C98.3395 85.2647 97.2117 85.3566 95.96 85.1807ZM111.494 87.3639C110.1 87.168 108.938 86.6411 108.008 85.7834C107.079 84.9257 106.429 83.8003 106.059 82.4073C105.69 81.0143 105.632 79.4146 105.885 77.6084C106.139 75.8021 106.636 74.2804 107.375 73.0433C108.133 71.7926 109.069 70.8819 110.183 70.3115C111.315 69.7274 112.578 69.5333 113.973 69.7292C115.383 69.9274 116.544 70.4622 117.455 71.3335C118.385 72.1913 119.035 73.3166 119.404 74.7097C119.79 76.1049 119.855 77.7136 119.599 79.5357C119.345 81.3419 118.848 82.8636 118.109 84.1007C117.369 85.3379 116.435 86.2406 115.305 86.8088C114.175 87.3771 112.904 87.5621 111.494 87.3639ZM111.825 85.0111C113.172 85.2003 114.287 84.7916 115.172 83.785C116.057 82.7783 116.645 81.2372 116.937 79.1616C117.133 77.7673 117.132 76.5635 116.935 75.5502C116.754 74.5392 116.381 73.7435 115.817 73.1633C115.27 72.5694 114.545 72.209 113.642 72.0821C112.755 71.9574 111.959 72.104 111.254 72.522C110.567 72.9263 109.989 73.5884 109.52 74.5081C109.068 75.4301 108.743 76.5882 108.547 77.9825C108.256 80.0581 108.396 81.7017 108.969 82.9132C109.542 84.1247 110.494 84.824 111.825 85.0111ZM127.413 89.6012C126.019 89.4052 124.857 88.8784 123.927 88.0207C122.998 87.1629 122.348 86.0375 121.978 84.6445C121.608 83.2515 121.55 81.6519 121.804 79.8456C122.058 78.0394 122.555 76.5177 123.294 75.2806C124.052 74.0298 124.987 73.1192 126.102 72.5487C127.234 71.9646 128.497 71.7705 129.892 71.9665C131.302 72.1647 132.463 72.6994 133.374 73.5708C134.304 74.4285 134.954 75.5539 135.323 76.9469C135.709 78.3422 135.774 79.9508 135.518 81.7729C135.264 83.5792 134.767 85.1009 134.028 86.338C133.288 87.5751 132.354 88.4778 131.224 89.0461C130.093 89.6143 128.823 89.7994 127.413 89.6012ZM127.744 87.2483C129.091 87.4376 130.206 87.0289 131.091 86.0222C131.976 85.0156 132.564 83.4744 132.856 81.3988C133.052 80.0045 133.051 78.8007 132.854 77.7875C132.673 76.7764 132.3 75.9808 131.736 75.4006C131.189 74.8067 130.464 74.4463 129.561 74.3194C128.674 74.1947 127.877 74.3413 127.172 74.7592C126.485 75.1636 125.908 75.8256 125.439 76.7453C124.986 77.6673 124.662 78.8254 124.466 80.2197C124.174 82.2953 124.315 83.9389 124.888 85.1504C125.461 86.362 126.413 87.0613 127.744 87.2483ZM137.135 93.2456L134.901 92.9316C136.123 91.3585 137.1 89.7588 137.829 88.1325C138.576 86.4926 139.069 84.8249 139.308 83.1296C139.784 79.7389 139.273 76.1932 137.773 72.4925L140.007 72.8065C141.728 76.4252 142.343 79.9854 141.851 83.487C141.361 86.9727 139.789 90.2256 137.135 93.2456Z" fill="black"/>
<path d="M158.92 88.0873L163.834 84.2338L155.258 83.0285L158.92 88.0873Z" fill="#2AB300"/>
<path d="M166.763 89.6946C166.826 89.249 166.951 88.8576 167.137 88.5203C167.331 88.1779 167.626 87.8679 168.022 87.5904C168.425 87.3137 168.964 87.0533 169.641 86.809C169.954 86.6955 170.208 86.5859 170.405 86.4802C170.602 86.3745 170.752 86.2533 170.856 86.1164C170.96 85.9796 171.027 85.8042 171.057 85.5903C171.088 85.3705 171.067 85.1737 170.995 84.9999C170.923 84.8202 170.799 84.6694 170.622 84.5476C170.451 84.4267 170.226 84.3466 169.947 84.3073C169.501 84.2447 169.132 84.3109 168.838 84.5058C168.55 84.7017 168.343 85.0089 168.217 85.4275L167.423 85.2613C167.581 84.6534 167.888 84.1936 168.344 83.882C168.799 83.5704 169.369 83.4626 170.052 83.5587C170.486 83.6196 170.846 83.7491 171.134 83.947C171.421 84.1449 171.625 84.3947 171.746 84.6965C171.874 84.9932 171.913 85.3228 171.862 85.6852C171.817 86.0061 171.724 86.2778 171.584 86.5004C171.444 86.7171 171.233 86.9085 170.949 87.0746C170.671 87.2416 170.296 87.41 169.823 87.5799C169.21 87.8028 168.734 88.0478 168.393 88.3151C168.059 88.5831 167.865 88.8377 167.813 89.0788L171.316 89.571L171.211 90.3197L166.763 89.6946ZM172.094 90.4439L172.236 89.4367L173.243 89.5783L173.101 90.5854L172.094 90.4439ZM176.211 91.1679C175.765 91.1052 175.39 90.9767 175.084 90.7822C174.784 90.5886 174.557 90.3447 174.405 90.0506C174.258 89.7574 174.195 89.4334 174.214 89.0786L175.024 89.1379C175.021 89.5011 175.135 89.7927 175.365 90.0128C175.601 90.2278 175.918 90.3633 176.316 90.4192C176.762 90.4818 177.133 90.4067 177.429 90.1939C177.727 89.9752 177.907 89.643 177.969 89.1974C178.011 88.9003 177.988 88.6365 177.899 88.4059C177.817 88.1702 177.674 87.9774 177.471 87.8277C177.268 87.678 177.012 87.5814 176.703 87.538C176.412 87.4971 176.139 87.5223 175.883 87.6137C175.628 87.705 175.434 87.8565 175.302 88.0681L174.482 87.9529L175.4 84.4557L178.947 84.9542L178.842 85.7029L175.999 85.3033L175.386 87.5983L175.263 87.4356C175.384 87.2648 175.53 87.1308 175.701 87.0337C175.879 86.9315 176.074 86.8648 176.284 86.8338C176.501 86.7977 176.722 86.7955 176.948 86.8272C177.37 86.8865 177.728 87.0338 178.022 87.269C178.317 87.4983 178.53 87.7918 178.662 88.1496C178.794 88.5014 178.831 88.8883 178.771 89.3101C178.712 89.732 178.564 90.0959 178.327 90.4019C178.091 90.702 177.791 90.9203 177.426 91.0569C177.062 91.1935 176.657 91.2305 176.211 91.1679ZM181.208 88.3983C180.81 88.3424 180.499 88.1623 180.275 87.8582C180.058 87.549 179.985 87.1419 180.056 86.6368C180.128 86.1259 180.31 85.7546 180.603 85.5232C180.902 85.2926 181.251 85.2052 181.649 85.2612C182.053 85.3179 182.364 85.498 182.582 85.8013C182.8 86.1045 182.873 86.5117 182.801 87.0226C182.73 87.5277 182.547 87.8989 182.253 88.1363C181.96 88.3678 181.612 88.4551 181.208 88.3983ZM181.286 87.8458C181.529 87.88 181.723 87.8163 181.867 87.6548C182.017 87.4941 182.114 87.2533 182.159 86.9325C182.204 86.6116 182.177 86.3533 182.077 86.1575C181.983 85.9626 181.815 85.848 181.571 85.8137C181.333 85.7803 181.14 85.844 180.99 86.0047C180.84 86.1654 180.743 86.4062 180.697 86.727C180.652 87.0479 180.68 87.3062 180.779 87.502C180.879 87.6978 181.048 87.8124 181.286 87.8458ZM184.358 92.2401C183.96 92.1842 183.649 92.0041 183.425 91.7C183.208 91.3908 183.135 90.9837 183.206 90.4786C183.278 89.9677 183.46 89.5964 183.753 89.365C184.052 89.1343 184.401 89.047 184.799 89.1029C185.203 89.1597 185.514 89.3398 185.732 89.643C185.95 89.9463 186.023 90.3534 185.951 90.8644C185.88 91.3695 185.697 91.7407 185.403 91.9781C185.11 92.2095 184.762 92.2969 184.358 92.2401ZM184.435 91.6875C184.679 91.7218 184.873 91.6581 185.017 91.4966C185.167 91.3359 185.264 91.0951 185.309 90.7742C185.354 90.4534 185.327 90.1951 185.227 89.9993C185.133 89.8043 184.965 89.6897 184.721 89.6555C184.483 89.6221 184.29 89.6858 184.14 89.8465C183.99 90.0072 183.893 90.248 183.847 90.5688C183.802 90.8897 183.83 91.148 183.929 91.3438C184.029 91.5395 184.198 91.6541 184.435 91.6875ZM180.019 91.5576L185.275 85.8435L185.988 85.9437L180.732 91.6578L180.019 91.5576Z" fill="#196701"/>
<rect x="31.9199" y="179.805" width="47" height="14" rx="6" transform="rotate(8 31.9199 179.805)" fill="url(#paint0_linear_192_94)"/>
<rect x="29.6934" y="195.649" width="47" height="24" rx="6" transform="rotate(8 29.6934 195.649)" fill="url(#paint1_linear_192_94)"/>
<rect x="93.4072" y="166.23" width="47" height="14" rx="6" transform="rotate(8 93.4072 166.23)" fill="url(#paint2_linear_192_94)"/>
<rect x="91.1807" y="182.074" width="47" height="46" rx="6" transform="rotate(8 91.1807 182.074)" fill="url(#paint3_linear_192_94)"/>
<rect x="150.72" y="182.364" width="47" height="19" rx="6" transform="rotate(8 150.72 182.364)" fill="url(#paint4_linear_192_94)"/>
<rect x="147.797" y="203.159" width="47" height="33" rx="6" transform="rotate(8 147.797 203.159)" fill="url(#paint5_linear_192_94)"/>
<rect x="209.146" y="190.575" width="47" height="19" rx="6" transform="rotate(8 209.146 190.575)" fill="url(#paint6_linear_192_94)"/>
<rect x="206.223" y="211.37" width="47" height="33" rx="6" transform="rotate(8 206.223 211.37)" fill="url(#paint7_linear_192_94)"/>
<rect x="267.989" y="195.815" width="47" height="14" rx="6" transform="rotate(8 267.989 195.815)" fill="url(#paint8_linear_192_94)"/>
<rect x="265.763" y="211.659" width="47" height="41" rx="6" transform="rotate(8 265.763 211.659)" fill="url(#paint9_linear_192_94)"/>
<g clip-path="url(#clip1_192_94)">
<rect x="326.415" y="204.026" width="47" height="14" rx="6" transform="rotate(8 326.415 204.026)" fill="url(#paint10_linear_192_94)"/>
<rect width="2" height="16.7083" transform="translate(329.323 203.425) rotate(32)" fill="#222222"/>
<rect width="2" height="16.7083" transform="translate(332.911 203.929) rotate(32)" fill="#222222"/>
<rect width="2" height="16.7083" transform="translate(336.498 204.434) rotate(32)" fill="#222222"/>
<rect width="2" height="16.7083" transform="translate(340.086 204.938) rotate(32)" fill="#222222"/>
<rect width="2" height="16.7083" transform="translate(343.674 205.442) rotate(32)" fill="#222222"/>
<rect width="2" height="16.7083" transform="translate(347.262 205.946) rotate(32)" fill="#222222"/>
<rect width="2" height="16.7083" transform="translate(350.85 206.451) rotate(32)" fill="#222222"/>
<rect width="2" height="16.7083" transform="translate(354.438 206.955) rotate(32)" fill="#222222"/>
<rect width="2" height="16.7083" transform="translate(358.025 207.459) rotate(32)" fill="#222222"/>
<rect width="2" height="16.7083" transform="translate(361.613 207.963) rotate(32)" fill="#222222"/>
<rect width="2" height="16.7083" transform="translate(365.201 208.468) rotate(32)" fill="#222222"/>
<rect width="2" height="16.7083" transform="translate(368.788 208.972) rotate(32)" fill="#222222"/>
<rect width="2" height="16.7083" transform="translate(372.376 209.476) rotate(32)" fill="#222222"/>
<rect width="2" height="16.7083" transform="translate(375.964 209.98) rotate(32)" fill="#222222"/>
<rect width="2" height="16.7083" transform="translate(379.552 210.484) rotate(32)" fill="#222222"/>
</g>
<g clip-path="url(#clip2_192_94)">
<rect x="324.188" y="219.871" width="47" height="41" rx="6" transform="rotate(8 324.188 219.871)" fill="url(#paint11_linear_192_94)"/>
<rect width="3.18173" height="47.9604" transform="matrix(0.251099 0.967962 -0.482132 0.876099 329.889 216.869)" fill="#BFBFBF"/>
<rect width="3.18173" height="47.9604" transform="matrix(0.251099 0.967962 -0.482132 0.876099 333.477 217.373)" fill="#BFBFBF"/>
<rect width="3.18173" height="47.9604" transform="matrix(0.251099 0.967962 -0.482132 0.876099 337.064 217.877)" fill="#BFBFBF"/>
<rect width="3.18173" height="47.9604" transform="matrix(0.251099 0.967962 -0.482132 0.876099 340.652 218.382)" fill="#BFBFBF"/>
<rect width="3.18173" height="47.9604" transform="matrix(0.251099 0.967962 -0.482132 0.876099 344.24 218.886)" fill="#BFBFBF"/>
<rect width="3.18173" height="47.9604" transform="matrix(0.251099 0.967962 -0.482132 0.876099 347.828 219.39)" fill="#BFBFBF"/>
<rect width="3.18173" height="47.9604" transform="matrix(0.251099 0.967962 -0.482132 0.876099 351.416 219.894)" fill="#BFBFBF"/>
<rect width="3.18173" height="47.9604" transform="matrix(0.251099 0.967962 -0.482132 0.876099 355.004 220.399)" fill="#BFBFBF"/>
<rect width="3.18173" height="47.9604" transform="matrix(0.251099 0.967962 -0.482132 0.876099 358.591 220.903)" fill="#BFBFBF"/>
<rect width="3.18173" height="47.9604" transform="matrix(0.251099 0.967962 -0.482132 0.876099 362.179 221.407)" fill="#BFBFBF"/>
<rect width="3.18173" height="47.9604" transform="matrix(0.251099 0.967962 -0.482132 0.876099 365.767 221.911)" fill="#BFBFBF"/>
<rect width="3.18173" height="47.9604" transform="matrix(0.251099 0.967962 -0.482132 0.876099 369.354 222.416)" fill="#BFBFBF"/>
<rect width="3.18173" height="47.9604" transform="matrix(0.251099 0.967962 -0.482132 0.876099 372.942 222.92)" fill="#BFBFBF"/>
<rect width="3.18173" height="47.9604" transform="matrix(0.251099 0.967962 -0.482132 0.876099 376.53 223.424)" fill="#BFBFBF"/>
<rect width="3.18173" height="47.9604" transform="matrix(0.251099 0.967962 -0.482132 0.876099 380.118 223.928)" fill="#BFBFBF"/>
<rect width="2.99894" height="45.1364" transform="matrix(0.275637 0.961262 -0.502938 0.864322 382.647 228.138)" fill="#BFBFBF"/>
</g>
</g>
<rect x="45.9627" y="11.6225" width="363" height="218" rx="11.5" transform="rotate(8 45.9627 11.6225)" stroke="#DEDEDE"/>
</g>
<defs>
<filter id="filter0_d_192_94" x="-1.94141" y="-1.94218" width="424.937" height="301.528" filterUnits="userSpaceOnUse" color-interpolation-filters="sRGB">
<feFlood flood-opacity="0" result="BackgroundImageFix"/>
<feColorMatrix in="SourceAlpha" type="matrix" values="0 0 0 0 0 0 0 0 0 0 0 0 0 0 0 0 0 0 127 0" result="hardAlpha"/>
<feMorphology radius="1" operator="dilate" in="SourceAlpha" result="effect1_dropShadow_192_94"/>
<feOffset dy="4"/>
<feGaussianBlur stdDeviation="8"/>
<feComposite in2="hardAlpha" operator="out"/>
<feColorMatrix type="matrix" values="0 0 0 0 0.567007 0 0 0 0 0.567007 0 0 0 0 0.567007 0 0 0 0.25 0"/>
<feBlend mode="normal" in2="BackgroundImageFix" result="effect1_dropShadow_192_94"/>
<feBlend mode="normal" in="SourceGraphic" in2="effect1_dropShadow_192_94" result="shape"/>
</filter>
<linearGradient id="paint0_linear_192_94" x1="55.4199" y1="179.805" x2="55.4199" y2="193.805" gradientUnits="userSpaceOnUse">
<stop stop-color="#96FF76"/>
<stop offset="1" stop-color="#5A9947"/>
</linearGradient>
<linearGradient id="paint1_linear_192_94" x1="53.1934" y1="195.649" x2="53.1934" y2="219.649" gradientUnits="userSpaceOnUse">
<stop stop-color="#208501"/>
<stop offset="1" stop-color="#72FF48"/>
</linearGradient>
<linearGradient id="paint2_linear_192_94" x1="116.907" y1="166.23" x2="116.907" y2="180.23" gradientUnits="userSpaceOnUse">
<stop stop-color="#96FF76"/>
<stop offset="1" stop-color="#5A9947"/>
</linearGradient>
<linearGradient id="paint3_linear_192_94" x1="114.681" y1="182.074" x2="114.681" y2="228.074" gradientUnits="userSpaceOnUse">
<stop stop-color="#208501"/>
<stop offset="1" stop-color="#72FF48"/>
</linearGradient>
<linearGradient id="paint4_linear_192_94" x1="174.22" y1="182.364" x2="174.22" y2="201.364" gradientUnits="userSpaceOnUse">
<stop stop-color="#96FF76"/>
<stop offset="1" stop-color="#5A9947"/>
</linearGradient>
<linearGradient id="paint5_linear_192_94" x1="171.297" y1="203.159" x2="171.297" y2="236.159" gradientUnits="userSpaceOnUse">
<stop stop-color="#208501"/>
<stop offset="1" stop-color="#72FF48"/>
</linearGradient>
<linearGradient id="paint6_linear_192_94" x1="232.646" y1="190.575" x2="232.646" y2="209.575" gradientUnits="userSpaceOnUse">
<stop stop-color="#96FF76"/>
<stop offset="1" stop-color="#5A9947"/>
</linearGradient>
<linearGradient id="paint7_linear_192_94" x1="229.723" y1="211.37" x2="229.723" y2="244.37" gradientUnits="userSpaceOnUse">
<stop stop-color="#208501"/>
<stop offset="1" stop-color="#72FF48"/>
</linearGradient>
<linearGradient id="paint8_linear_192_94" x1="291.489" y1="195.815" x2="291.489" y2="209.815" gradientUnits="userSpaceOnUse">
<stop stop-color="#96FF76"/>
<stop offset="1" stop-color="#5A9947"/>
</linearGradient>
<linearGradient id="paint9_linear_192_94" x1="289.263" y1="211.659" x2="289.263" y2="252.659" gradientUnits="userSpaceOnUse">
<stop stop-color="#208501"/>
<stop offset="1" stop-color="#72FF48"/>
</linearGradient>
<linearGradient id="paint10_linear_192_94" x1="349.915" y1="204.026" x2="349.915" y2="218.026" gradientUnits="userSpaceOnUse">
<stop stop-color="#96FF76"/>
<stop offset="1" stop-color="#5A9947"/>
</linearGradient>
<linearGradient id="paint11_linear_192_94" x1="347.688" y1="219.871" x2="347.688" y2="260.871" gradientUnits="userSpaceOnUse">
<stop stop-color="#208501"/>
<stop offset="1" stop-color="#72FF48"/>
</linearGradient>
<clipPath id="clip0_192_94">
<rect x="45.5371" y="11.0578" width="364" height="219" rx="12" transform="rotate(8 45.5371 11.0578)" fill="white"/>
</clipPath>
<clipPath id="clip1_192_94">
<rect x="326.415" y="204.026" width="47" height="14" rx="6" transform="rotate(8 326.415 204.026)" fill="white"/>
</clipPath>
<clipPath id="clip2_192_94">
<rect x="324.188" y="219.871" width="47" height="41" rx="6" transform="rotate(8 324.188 219.871)" fill="white"/>
</clipPath>
</defs>
</svg>
