<svg width="422" height="300" viewBox="0 0 422 300" fill="none" xmlns="http://www.w3.org/2000/svg">
<g filter="url(#filter0_d_192_67)">
<g clip-path="url(#clip0_192_67)">
<rect x="15.0576" y="61.7168" width="364" height="221" rx="12" transform="rotate(-8 15.0576 61.7168)" fill="#F2F2F2"/>
<path d="M32.5396 82.6961C31.8358 82.795 31.2035 82.7482 30.6426 82.5557C30.0816 82.3632 29.6141 82.057 29.24 81.637C28.8733 81.2071 28.6208 80.6869 28.4825 80.0762L29.6302 79.8361C29.7542 80.2825 29.9415 80.6501 30.1921 80.9387C30.4427 81.2273 30.7511 81.429 31.1173 81.5438C31.4921 81.6574 31.9241 81.6798 32.4133 81.6111C32.8424 81.5508 33.1993 81.4437 33.484 81.2899C33.7688 81.1361 33.9733 80.9411 34.0976 80.7048C34.2305 80.4674 34.2752 80.1941 34.2318 79.8852C34.192 79.602 34.0884 79.3627 33.9209 79.1675C33.7608 78.9624 33.4793 78.7963 33.0763 78.6692C32.6808 78.5322 32.1056 78.4249 31.3507 78.3472C30.6217 78.2659 30.0318 78.1475 29.5811 77.992C29.139 77.8354 28.8018 77.6158 28.5696 77.3334C28.3459 77.0497 28.2021 76.6805 28.1382 76.2256C28.0658 75.7107 28.1227 75.2432 28.3087 74.8233C28.5021 74.3935 28.8112 74.0394 29.2359 73.7609C29.6594 73.4738 30.1844 73.2863 30.8109 73.1982C31.4803 73.1041 32.0734 73.152 32.5902 73.342C33.1058 73.5233 33.536 73.8129 33.8807 74.2108C34.2254 74.6087 34.4713 75.0818 34.6184 75.63L33.4706 75.87C33.3673 75.5082 33.2013 75.199 32.9727 74.9423C32.7514 74.6759 32.4706 74.4834 32.1301 74.365C31.7896 74.2465 31.392 74.2193 30.9371 74.2832C30.3707 74.3628 29.9394 74.5634 29.6433 74.8851C29.346 75.1982 29.2281 75.5736 29.2896 76.0113C29.3294 76.2945 29.4269 76.5215 29.5822 76.6922C29.7448 76.8531 30.0081 76.9824 30.3719 77.0801C30.7345 77.1692 31.249 77.25 31.9156 77.3226C32.706 77.4041 33.343 77.5465 33.8267 77.7498C34.3177 77.9433 34.6818 78.1985 34.9189 78.5152C35.1645 78.8308 35.3181 79.2074 35.3796 79.6451C35.4544 80.1772 35.3822 80.66 35.163 81.0933C34.9427 81.5181 34.6073 81.8716 34.1568 82.1537C33.7051 82.4272 33.1661 82.608 32.5396 82.6961ZM37.6565 83.736L36.4262 74.9821L37.4304 74.8409L37.6624 76.3049L37.497 76.2494C37.5975 75.7189 37.827 75.2972 38.1857 74.9842C38.5516 74.6615 38.9964 74.4633 39.5199 74.3897C40.1979 74.2945 40.775 74.384 41.2511 74.6584C41.7359 74.9316 42.1192 75.3241 42.4012 75.8358C42.6917 76.3464 42.881 76.9149 42.9691 77.5414C43.0571 78.1679 43.0319 78.7666 42.8933 79.3374C42.7633 79.907 42.503 80.39 42.1123 80.7862C41.7303 81.1812 41.2002 81.4264 40.5222 81.5217C40.1703 81.5711 39.8315 81.5575 39.5056 81.4807C39.1884 81.4028 38.9074 81.2716 38.6627 81.0872C38.4265 80.9016 38.2493 80.6683 38.1311 80.3874L38.2602 80.1855L38.7379 83.5841L37.6565 83.736ZM40.2745 80.5063C40.8667 80.423 41.3031 80.1341 41.5836 79.6396C41.8642 79.1451 41.9484 78.4988 41.8362 77.7006C41.7241 76.9024 41.465 76.3043 41.0589 75.9063C40.6529 75.5083 40.1538 75.3509 39.5617 75.4341C39.1669 75.4896 38.8368 75.6322 38.5716 75.8621C38.3149 76.0907 38.1316 76.4052 38.0216 76.8058C37.9202 77.2051 37.9087 77.6837 37.9871 78.2416C38.0655 78.7994 38.2084 79.2563 38.416 79.6122C38.6235 79.9681 38.8865 80.22 39.2048 80.3678C39.5231 80.5156 39.8797 80.5617 40.2745 80.5063ZM47.5378 80.5357C46.8941 80.6261 46.3157 80.5586 45.8027 80.3332C45.2982 80.1065 44.8799 79.7452 44.5476 79.2493C44.2228 78.7436 44.0097 78.1303 43.9084 77.4094C43.807 76.6885 43.8434 76.0445 44.0175 75.4774C44.2002 74.9091 44.4985 74.4471 44.9123 74.0914C45.3336 73.7258 45.8574 73.4991 46.484 73.411C47.0761 73.3278 47.6196 73.3958 48.1142 73.6151C48.6077 73.8258 49.0162 74.1797 49.3399 74.6769C49.6722 75.1728 49.892 75.8026 49.9993 76.5665L50.0446 76.8883L45.0883 77.5849C45.2337 78.3083 45.504 78.8305 45.8991 79.1513C46.3029 79.4709 46.8008 79.589 47.393 79.5058C47.8393 79.4431 48.1896 79.2888 48.4439 79.0431C48.7055 78.7875 48.868 78.4802 48.9313 78.1212L50.1026 78.0485C50.008 78.6832 49.7353 79.2335 49.2844 79.6995C48.8409 80.1556 48.2587 80.4344 47.5378 80.5357ZM44.9544 76.6322L48.7263 76.1021C48.5819 75.4485 48.3207 74.9908 47.9426 74.7288C47.573 74.4657 47.135 74.3697 46.6287 74.4409C46.1052 74.5145 45.6947 74.7384 45.3972 75.1128C45.1071 75.4774 44.9595 75.9839 44.9544 76.6322ZM51.8774 79.7683L50.9185 72.9453L51.9097 72.806L52.1926 74.5385L52.0476 74.4407C52.0767 74.0253 52.1804 73.6738 52.3588 73.3861C52.536 73.0899 52.7657 72.8564 53.048 72.6854C53.3389 72.5133 53.6602 72.4024 54.0121 72.353C54.5356 72.2794 54.981 72.335 55.3483 72.5197C55.7242 72.7031 56.0214 72.9808 56.2399 73.3527C56.4659 73.7148 56.6126 74.1361 56.6801 74.6167L57.2971 79.0066L56.2157 79.1585L55.6422 75.0777C55.5831 74.6571 55.4821 74.3125 55.3393 74.0437C55.2039 73.7652 55.0187 73.5681 54.7836 73.4523C54.5474 73.328 54.2576 73.29 53.9143 73.3382C53.3908 73.4118 52.9809 73.64 52.6846 74.023C52.3957 74.3962 52.2959 74.9003 52.3852 75.5354L52.9587 79.6163L51.8774 79.7683ZM61.5843 78.5616C60.9921 78.6448 60.4566 78.5713 59.9779 78.341C59.5078 78.1095 59.1195 77.744 58.813 77.2444C58.5065 76.7449 58.302 76.1304 58.1994 75.4009C58.0969 74.6714 58.1241 74.0243 58.2811 73.4596C58.438 72.895 58.7105 72.4366 59.0986 72.0845C59.4953 71.7312 59.9897 71.5129 60.5819 71.4297C61.0368 71.3657 61.4669 71.4059 61.8723 71.5503C62.2764 71.686 62.5976 71.9165 62.8359 72.2419L62.3763 68.972L63.4577 68.82L64.7423 77.9602L63.7639 78.0977L63.5805 77.0733C63.4436 77.4688 63.1971 77.801 62.8411 78.0699C62.4838 78.3301 62.0649 78.494 61.5843 78.5616ZM61.6584 77.5009C62.0617 77.4443 62.3863 77.2936 62.6319 77.049C62.8862 76.8033 63.0598 76.4813 63.1526 76.0832C63.2442 75.6765 63.2538 75.2157 63.1815 74.7007C63.1067 74.1686 62.9698 73.724 62.7708 73.3669C62.5719 73.0098 62.3169 72.7524 62.0059 72.5948C61.7024 72.4274 61.3489 72.3721 60.9455 72.4288C60.3448 72.5132 59.8961 72.8082 59.5996 73.3137C59.3104 73.8095 59.2213 74.4521 59.3323 75.2417C59.4421 76.0227 59.7048 76.6159 60.1206 77.0213C60.545 77.4255 61.0576 77.5854 61.6584 77.5009Z" fill="black"/>
<circle cx="354.254" cy="32.2228" r="2" transform="rotate(-8 354.254 32.2228)" fill="black"/>
<circle cx="360.195" cy="31.3878" r="2" transform="rotate(-8 360.195 31.3878)" fill="black"/>
<circle cx="366.137" cy="30.5527" r="2" transform="rotate(-8 366.137 30.5527)" fill="black"/>
<path d="M39.3209 127.622C36.6667 124.601 35.0947 121.349 34.6048 117.863C34.1127 114.361 34.7272 110.801 36.4483 107.182L38.6824 106.868C37.1828 110.569 36.6713 114.115 37.1478 117.505C37.3861 119.201 37.8711 120.87 38.6027 122.512C39.348 124.136 40.3321 125.734 41.5549 127.308L39.3209 127.622ZM48.5952 125.833L45.6225 104.681L47.4287 104.427L50.4015 125.58L48.5952 125.833ZM49.4346 123.873C48.1195 124.058 46.9453 123.981 45.912 123.641C44.8765 123.286 44.0134 122.721 43.3228 121.945C42.648 121.168 42.184 120.223 41.9308 119.111L44.5013 118.605C44.7033 119.352 45.0164 119.97 45.4407 120.46C45.8628 120.934 46.379 121.273 46.9895 121.478C47.6136 121.665 48.3376 121.701 49.1615 121.585C49.8745 121.485 50.4722 121.312 50.9548 121.067C51.4351 120.805 51.7775 120.482 51.982 120.098C52.2024 119.712 52.2758 119.257 52.2023 118.734C52.1355 118.259 51.9667 117.863 51.6959 117.545C51.4229 117.212 50.9483 116.939 50.2722 116.727C49.5939 116.5 48.6247 116.329 47.3646 116.215C46.005 116.083 44.9013 115.875 44.0534 115.59C43.2055 115.305 42.5672 114.902 42.1384 114.381C41.7233 113.841 41.4545 113.136 41.3321 112.264C41.2007 111.329 41.3146 110.473 41.6739 109.696C42.031 108.902 42.6015 108.248 43.3856 107.734C44.1833 107.202 45.1763 106.852 46.3646 106.685C47.6322 106.507 48.7419 106.586 49.6937 106.92C50.6614 107.253 51.4635 107.787 52.0999 108.521C52.7363 109.256 53.1914 110.137 53.4651 111.165L50.8946 111.672C50.7286 111.065 50.4526 110.538 50.0667 110.091C49.6966 109.643 49.2233 109.321 48.6467 109.128C48.0679 108.918 47.3983 108.867 46.6377 108.974C45.6871 109.107 44.9657 109.435 44.4735 109.956C43.9813 110.478 43.7864 111.103 43.8888 111.832C43.9556 112.307 44.1222 112.688 44.3885 112.974C44.6707 113.257 45.1137 113.478 45.7175 113.635C46.3372 113.79 47.2035 113.919 48.3166 114.021C49.7893 114.154 50.979 114.398 51.8855 114.756C52.7898 115.097 53.4687 115.559 53.9222 116.142C54.3757 116.724 54.6592 117.42 54.7728 118.228C54.9109 119.21 54.7776 120.101 54.373 120.901C53.9662 121.685 53.3391 122.339 52.4916 122.862C51.6419 123.369 50.6229 123.706 49.4346 123.873ZM65.7291 121.244L65.2348 117.727L56.7264 118.922L56.4191 116.736L63.0487 104.413L65.9244 104.009L67.4742 115.037L69.5419 114.746L69.8692 117.075L67.8016 117.366L68.2959 120.883L65.7291 121.244ZM59.3223 116.183L64.9075 115.398L63.8586 107.935L59.3223 116.183ZM73.0247 124.024L73.6887 120.125L72.3815 120.309L71.9606 117.315L75.0265 116.884L75.3973 119.522L74.4745 123.82L73.0247 124.024ZM83.9591 119.07C82.7074 119.246 81.61 119.198 80.6671 118.927C79.7219 118.639 78.9446 118.167 78.3352 117.509C77.7257 116.852 77.3146 116.053 77.1017 115.114L79.7164 114.577C79.9679 115.446 80.4338 116.059 81.114 116.416C81.8079 116.755 82.646 116.855 83.6284 116.717C84.7375 116.561 85.5655 116.13 86.1124 115.423C86.6752 114.713 86.8787 113.804 86.7228 112.695C86.6203 111.966 86.3819 111.362 86.0073 110.881C85.6464 110.382 85.1766 110.028 84.5978 109.819C84.0168 109.594 83.3539 109.533 82.6093 109.638C81.8646 109.743 81.2214 109.995 80.6797 110.394C80.138 110.793 79.7793 111.288 79.6038 111.878L76.9419 112.252L76.7333 102.49L86.6201 101.101L86.9508 103.453L79.3455 104.522L79.4442 110.398L78.9901 110.098C79.1926 109.585 79.4787 109.149 79.8484 108.79C80.2158 108.415 80.6577 108.111 81.1741 107.876C81.7042 107.624 82.2782 107.455 82.8961 107.368C84.0369 107.208 85.0617 107.314 85.9705 107.687C86.8951 108.058 87.6563 108.646 88.2541 109.45C88.8519 110.255 89.2287 111.212 89.3846 112.321C89.5472 113.478 89.4294 114.536 89.0312 115.497C88.633 116.458 88.0011 117.25 87.1353 117.872C86.2695 118.495 85.2108 118.894 83.9591 119.07ZM99.4934 116.887C98.0991 117.083 96.8369 116.896 95.7068 116.328C94.5767 115.76 93.642 114.857 92.9026 113.62C92.1633 112.383 91.6667 110.861 91.4128 109.055C91.159 107.249 91.2169 105.649 91.5866 104.256C91.97 102.845 92.6186 101.712 93.5324 100.856C94.4598 99.9827 95.6207 99.4479 97.015 99.2519C98.4251 99.0538 99.6885 99.2478 100.805 99.8342C101.935 100.402 102.87 101.305 103.609 102.542C104.364 103.777 104.87 105.306 105.126 107.128C105.38 108.934 105.322 110.534 104.952 111.927C104.583 113.32 103.933 114.445 103.003 115.303C102.073 116.16 100.904 116.688 99.4934 116.887ZM99.1627 114.534C100.509 114.344 101.469 113.644 102.042 112.433C102.615 111.221 102.756 109.577 102.464 107.502C102.268 106.108 101.936 104.951 101.467 104.031C101.015 103.109 100.437 102.447 99.7341 102.045C99.045 101.625 98.2488 101.478 97.3457 101.605C96.4584 101.73 95.7335 102.09 95.171 102.686C94.6221 103.264 94.2492 104.06 94.0523 105.073C93.8712 106.084 93.8787 107.287 94.0747 108.681C94.3664 110.757 94.9546 112.298 95.8393 113.304C96.724 114.311 97.8318 114.721 99.1627 114.534ZM115.412 114.649C114.018 114.845 112.756 114.659 111.626 114.091C110.496 113.523 109.561 112.62 108.822 111.383C108.082 110.146 107.586 108.624 107.332 106.818C107.078 105.012 107.136 103.412 107.505 102.019C107.889 100.608 108.537 99.4745 109.451 98.619C110.379 97.7454 111.54 97.2106 112.934 97.0147C114.344 96.8165 115.607 97.0106 116.724 97.5969C117.854 98.1652 118.789 99.0678 119.528 100.305C120.283 101.54 120.789 103.068 121.045 104.89C121.299 106.697 121.241 108.296 120.871 109.689C120.501 111.082 119.852 112.208 118.922 113.066C117.992 113.923 116.822 114.451 115.412 114.649ZM115.082 112.297C116.428 112.107 117.388 111.407 117.961 110.195C118.534 108.984 118.675 107.34 118.383 105.265C118.187 103.87 117.855 102.713 117.386 101.794C116.934 100.872 116.356 100.21 115.653 99.8074C114.964 99.3873 114.168 99.2406 113.265 99.3676C112.377 99.4923 111.652 99.8527 111.09 100.449C110.541 101.027 110.168 101.822 109.971 102.836C109.79 103.847 109.798 105.049 109.994 106.444C110.285 108.519 110.873 110.06 111.758 111.067C112.643 112.074 113.751 112.484 115.082 112.297ZM125.762 115.473L123.528 115.787C124.269 113.938 124.767 112.131 125.02 110.367C125.286 108.584 125.3 106.845 125.062 105.15C124.586 101.759 123.117 98.4919 120.655 95.3479L122.889 95.0339C125.541 98.0381 127.113 101.291 127.605 104.793C128.095 108.278 127.481 111.838 125.762 115.473Z" fill="black"/>
<path d="M145.28 104.51L148.942 99.4509L140.366 100.656L145.28 104.51Z" fill="#2AB300"/>
<path d="M153.263 103.893C153.201 103.447 153.213 103.036 153.299 102.661C153.391 102.278 153.589 101.899 153.894 101.523C154.204 101.146 154.651 100.747 155.234 100.326C155.504 100.13 155.718 99.9548 155.878 99.799C156.038 99.6432 156.149 99.4852 156.211 99.325C156.274 99.1648 156.29 98.9777 156.26 98.7638C156.229 98.544 156.155 98.3605 156.037 98.2134C155.919 98.0604 155.758 97.9498 155.554 97.8814C155.357 97.8122 155.118 97.7973 154.839 97.8365C154.393 97.8991 154.056 98.0647 153.827 98.3332C153.604 98.6008 153.49 98.9531 153.485 99.3901L152.675 99.4493C152.66 98.8214 152.828 98.2948 153.18 97.8697C153.533 97.4445 154.05 97.1839 154.734 97.0879C155.167 97.0269 155.55 97.052 155.88 97.163C156.211 97.2741 156.476 97.458 156.676 97.7147C156.881 97.9646 157.009 98.2708 157.059 98.6332C157.105 98.9541 157.09 99.2409 157.017 99.4936C156.942 99.7403 156.792 99.9826 156.565 100.221C156.343 100.458 156.029 100.723 155.622 101.016C155.094 101.4 154.704 101.767 154.45 102.117C154.202 102.467 154.087 102.765 154.103 103.011L157.606 102.519L157.711 103.268L153.263 103.893ZM158.594 103.144L158.453 102.136L159.46 101.995L159.601 103.002L158.594 103.144ZM162.751 102.705C162.306 102.767 161.909 102.747 161.561 102.645C161.22 102.541 160.935 102.369 160.707 102.129C160.485 101.887 160.335 101.593 160.256 101.247L161.051 101.081C161.148 101.43 161.338 101.679 161.619 101.828C161.906 101.969 162.248 102.012 162.646 101.956C163.092 101.893 163.428 101.719 163.654 101.433C163.88 101.14 163.961 100.772 163.898 100.326C163.857 100.029 163.761 99.7817 163.612 99.5845C163.469 99.3805 163.278 99.2346 163.042 99.1466C162.805 99.0587 162.533 99.0364 162.224 99.0799C161.933 99.1208 161.677 99.2203 161.457 99.3785C161.237 99.5367 161.092 99.7358 161.023 99.9757L160.203 100.091L160.122 96.476L163.669 95.9775L163.774 96.7262L160.931 97.1257L160.974 99.5009L160.811 99.3783C160.881 99.1808 160.984 99.0117 161.122 98.8712C161.265 98.7239 161.433 98.6063 161.627 98.5185C161.826 98.4239 162.038 98.3607 162.264 98.329C162.685 98.2697 163.07 98.3126 163.418 98.4576C163.764 98.5967 164.05 98.8201 164.275 99.1278C164.5 99.4295 164.641 99.7913 164.701 100.213C164.76 100.635 164.718 101.026 164.574 101.385C164.43 101.739 164.202 102.031 163.889 102.263C163.576 102.495 163.197 102.642 162.751 102.705ZM166.791 98.6652C166.393 98.7211 166.045 98.6338 165.746 98.4031C165.452 98.1657 165.269 97.7945 165.198 97.2895C165.126 96.7785 165.199 96.3714 165.417 96.0681C165.641 95.764 165.952 95.5839 166.35 95.528C166.754 95.4712 167.103 95.5585 167.396 95.79C167.689 96.0215 167.871 96.3927 167.943 96.9037C168.014 97.4087 167.941 97.8158 167.724 98.1251C167.506 98.4283 167.195 98.6084 166.791 98.6652ZM166.714 98.1126C166.957 98.0783 167.126 97.9638 167.22 97.7688C167.319 97.573 167.347 97.3147 167.302 96.9939C167.256 96.673 167.159 96.4322 167.009 96.2715C166.865 96.11 166.672 96.0463 166.428 96.0806C166.19 96.114 166.022 96.2285 165.922 96.4243C165.822 96.6201 165.795 96.8784 165.84 97.1993C165.885 97.5201 165.982 97.7609 166.132 97.9216C166.282 98.0823 166.476 98.146 166.714 98.1126ZM170.878 101.49C170.48 101.546 170.131 101.458 169.832 101.228C169.539 100.99 169.356 100.619 169.285 100.114C169.213 99.6032 169.286 99.1961 169.504 98.8928C169.728 98.5887 170.039 98.4086 170.437 98.3527C170.841 98.2959 171.19 98.3832 171.483 98.6147C171.776 98.8462 171.958 99.2174 172.03 99.7284C172.101 100.233 172.028 100.641 171.811 100.95C171.593 101.253 171.282 101.433 170.878 101.49ZM170.8 100.937C171.044 100.903 171.213 100.788 171.307 100.594C171.406 100.398 171.434 100.139 171.388 99.8186C171.343 99.4977 171.246 99.2569 171.096 99.0962C170.952 98.9347 170.758 98.871 170.515 98.9053C170.277 98.9387 170.109 99.0533 170.009 99.249C169.909 99.4448 169.882 99.7031 169.927 100.024C169.972 100.345 170.069 100.586 170.219 100.746C170.369 100.907 170.563 100.971 170.8 100.937ZM166.519 102.03L169.997 95.0882L170.71 94.988L167.232 101.93L166.519 102.03Z" fill="#196701"/>
<rect width="1" height="57" transform="translate(44.8623 201.933) rotate(-8)" fill="#208501"/>
<path d="M45.9219 202.289L90.5434 196.018C96.0874 195.239 98.8593 194.85 100.834 196.313C100.859 196.332 100.884 196.351 100.909 196.37C102.86 197.864 103.25 200.636 104.029 206.18L104.185 207.289C104.964 212.833 105.353 215.605 103.89 217.58C103.871 217.605 103.852 217.63 103.833 217.655C102.339 219.606 99.5667 219.996 94.0227 220.775L49.4012 227.046L45.9219 202.289Z" fill="url(#paint0_linear_192_67)"/>
<path d="M50.2363 232.988L378.074 186.913C383.618 186.134 386.39 185.744 388.365 187.208C388.39 187.227 388.415 187.246 388.44 187.265C390.391 188.759 390.781 191.531 391.56 197.075L391.716 198.184C392.495 203.728 392.885 206.5 391.421 208.475C391.402 208.5 391.383 208.525 391.364 208.55C389.87 210.501 387.098 210.891 381.554 211.67L53.7157 257.744L50.2363 232.988Z" fill="#D5D6D5"/>
<rect x="53.5605" y="263.825" width="4" height="4" rx="2" transform="rotate(-8 53.5605 263.825)" fill="#2AB300"/>
<path d="M65.1629 266.852C64.7193 266.914 64.3145 266.867 63.9486 266.711C63.582 266.551 63.277 266.292 63.0336 265.935C62.7902 265.578 62.6312 265.134 62.5565 264.603C62.4825 264.076 62.5109 263.608 62.6419 263.198C62.7768 262.783 62.9983 262.448 63.3064 262.193C63.6139 261.933 63.9941 261.771 64.447 261.707C65.057 261.622 65.5521 261.708 65.9323 261.965C66.3125 262.223 66.5915 262.615 66.7691 263.141L65.9917 263.293C65.8796 262.965 65.7039 262.721 65.4647 262.561C65.2248 262.397 64.9177 262.341 64.5434 262.394C64.243 262.436 63.9927 262.549 63.7923 262.733C63.5965 262.916 63.456 263.157 63.3709 263.456C63.2904 263.755 63.2777 264.101 63.3329 264.494C63.3881 264.886 63.4956 265.215 63.6554 265.48C63.8198 265.745 64.0232 265.935 64.2659 266.052C64.5085 266.169 64.7753 266.206 65.0665 266.166C65.4639 266.11 65.7566 265.963 65.9446 265.724C66.1365 265.48 66.2342 265.17 66.2377 264.792L67.0269 264.724C67.0194 265.106 66.9447 265.447 66.8028 265.745C66.6609 266.043 66.4528 266.289 66.1785 266.483C65.9035 266.672 65.565 266.795 65.1629 266.852ZM69.1668 266.261C68.7971 266.313 68.4842 266.232 68.2279 266.018C67.9756 265.799 67.8187 265.47 67.757 265.031L67.4238 262.66L68.1586 262.557L68.4654 264.741C68.5122 265.073 68.6044 265.31 68.742 265.451C68.8796 265.592 69.0663 265.646 69.3019 265.613C69.57 265.575 69.7659 265.46 69.8898 265.269C70.0176 265.072 70.0594 264.816 70.0153 264.502L69.7113 262.339L70.4461 262.236L70.9644 265.923L70.2781 266.02L70.1288 265.058L70.2386 265.085C70.2194 265.418 70.1182 265.687 69.9349 265.891C69.751 266.092 69.4949 266.215 69.1668 266.261ZM71.9691 265.782L71.4508 262.094L72.1232 262L72.2883 262.973L72.2229 262.961C72.227 262.622 72.2946 262.365 72.4257 262.191C72.5613 262.016 72.7609 261.91 73.0243 261.873L73.3778 261.824L73.4704 262.482L73.1169 262.532C72.932 262.558 72.7814 262.61 72.6651 262.687C72.5488 262.765 72.467 262.871 72.4198 263.004C72.3773 263.138 72.37 263.304 72.3979 263.502L72.7038 265.679L71.9691 265.782ZM74.412 265.439L73.8937 261.751L74.5661 261.657L74.7312 262.63L74.6659 262.618C74.67 262.278 74.7375 262.021 74.8686 261.847C75.0043 261.673 75.2038 261.567 75.4673 261.53L75.8208 261.48L75.9133 262.139L75.5598 262.188C75.375 262.214 75.2244 262.266 75.108 262.344C74.9917 262.421 74.91 262.527 74.8628 262.661C74.8203 262.794 74.8129 262.96 74.8409 263.159L75.1468 265.336L74.412 265.439ZM78.3576 264.969C77.9972 265.02 77.6742 264.985 77.3887 264.865C77.1078 264.744 76.8753 264.548 76.6911 264.277C76.5116 264.006 76.3945 263.676 76.34 263.288C76.2854 262.899 76.3073 262.552 76.4057 262.246C76.508 261.935 76.6776 261.683 76.9143 261.489C77.1503 261.291 77.444 261.167 77.7952 261.118C78.1279 261.071 78.4324 261.109 78.7086 261.23C78.9842 261.347 79.2118 261.541 79.3914 261.813C79.5756 262.084 79.6965 262.425 79.7543 262.836L79.7807 263.023L77.1327 263.395C77.2018 263.753 77.3346 264.01 77.5309 264.166C77.7318 264.322 77.9802 264.379 78.2759 264.337C78.4931 264.307 78.6662 264.231 78.7952 264.109C78.9241 263.987 79.0043 263.837 79.0358 263.658L79.8051 263.599C79.7561 263.955 79.6033 264.259 79.3466 264.512C79.094 264.76 78.7643 264.912 78.3576 264.969ZM77.0547 262.841L78.9263 262.578C78.8571 262.253 78.7283 262.024 78.5398 261.89C78.356 261.755 78.137 261.706 77.8829 261.742C77.6194 261.779 77.4139 261.893 77.2663 262.083C77.1227 262.268 77.0522 262.521 77.0547 262.841ZM80.7195 264.552L80.2012 260.865L80.8736 260.77L81.0396 261.751L80.9427 261.715C80.9505 261.469 81.0018 261.263 81.0966 261.099C81.1913 260.935 81.317 260.807 81.4736 260.714C81.6296 260.617 81.8046 260.554 81.9987 260.527C82.276 260.488 82.5135 260.518 82.7113 260.618C82.913 260.712 83.075 260.859 83.1973 261.059C83.3236 261.253 83.4056 261.484 83.4432 261.752L83.7764 264.123L83.0416 264.226L82.7396 262.077C82.7091 261.86 82.6603 261.681 82.5934 261.539C82.5264 261.398 82.4342 261.295 82.3169 261.232C82.1995 261.168 82.0554 261.148 81.8844 261.172C81.6256 261.209 81.4273 261.324 81.2896 261.518C81.1519 261.711 81.1061 261.972 81.1522 262.3L81.4542 264.449L80.7195 264.552ZM85.9304 263.82C85.5792 263.869 85.309 263.825 85.1199 263.687C84.9308 263.548 84.8122 263.308 84.7642 262.966L84.2644 259.41L84.9992 259.307L85.4912 262.807C85.5152 262.978 85.5687 263.091 85.6518 263.145C85.7348 263.2 85.8526 263.216 86.0051 263.195L86.5319 263.121L86.6166 263.724L85.9304 263.82ZM83.9095 260.958L83.8247 260.355L86.0984 260.036L86.1831 260.639L83.9095 260.958ZM89.052 263.381L88.3603 258.46L89.3862 258.316L91.4168 262.151L92.3114 257.904L93.3374 257.76L94.029 262.682L93.2804 262.787L92.7738 259.183L91.9554 262.966L91.1236 263.083L89.294 259.672L89.8006 263.276L89.052 263.381ZM96.5701 262.41C96.2188 262.459 95.9005 262.424 95.615 262.303C95.3295 262.183 95.0947 261.988 94.9105 261.717C94.7263 261.446 94.6069 261.116 94.5524 260.728C94.4972 260.335 94.5211 259.985 94.6241 259.679C94.7271 259.372 94.8992 259.122 95.1406 258.928C95.3812 258.729 95.6772 258.605 96.0284 258.555C96.3796 258.506 96.6983 258.544 96.9844 258.668C97.2699 258.789 97.5044 258.982 97.688 259.248C97.8715 259.515 97.9909 259.844 98.0461 260.237C98.1006 260.625 98.0767 260.975 97.9744 261.286C97.872 261.597 97.7002 261.85 97.4589 262.044C97.2175 262.238 96.9213 262.36 96.5701 262.41ZM96.4804 261.772C96.7947 261.728 97.0214 261.58 97.1605 261.33C97.2991 261.075 97.3401 260.746 97.2836 260.344C97.227 259.942 97.0974 259.64 96.8946 259.437C96.6911 259.23 96.4323 259.149 96.118 259.193C95.8084 259.237 95.582 259.386 95.4389 259.642C95.2997 259.893 95.2584 260.219 95.3149 260.621C95.3714 261.023 95.5014 261.327 95.7048 261.534C95.9123 261.736 96.1708 261.815 96.4804 261.772ZM99.0131 261.981L98.4948 258.294L99.1672 258.199L99.3333 259.18L99.2364 259.144C99.2442 258.898 99.2955 258.692 99.3902 258.528C99.485 258.364 99.6106 258.236 99.7673 258.143C99.9232 258.046 100.098 257.983 100.292 257.956C100.57 257.917 100.807 257.947 101.005 258.047C101.207 258.141 101.369 258.288 101.491 258.488C101.617 258.682 101.699 258.913 101.737 259.181L102.07 261.552L101.335 261.655L101.033 259.506C101.003 259.289 100.954 259.11 100.887 258.968C100.82 258.827 100.728 258.724 100.611 258.661C100.493 258.597 100.349 258.577 100.178 258.601C99.9193 258.638 99.721 258.753 99.5833 258.947C99.4456 259.14 99.3998 259.401 99.4459 259.729L99.7479 261.878L99.0131 261.981ZM104.224 261.249C103.873 261.298 103.603 261.254 103.414 261.116C103.224 260.977 103.106 260.737 103.058 260.395L102.558 256.839L103.293 256.736L103.785 260.236C103.809 260.407 103.862 260.52 103.945 260.574C104.028 260.629 104.146 260.645 104.299 260.624L104.826 260.55L104.91 261.153L104.224 261.249ZM102.203 258.387L102.118 257.784L104.392 257.465L104.477 258.068L102.203 258.387ZM105.578 261.059L104.886 256.137L105.621 256.034L105.911 258.1L105.819 258.098C105.832 257.885 105.884 257.705 105.977 257.56C106.069 257.411 106.191 257.292 106.344 257.205C106.497 257.117 106.67 257.06 106.864 257.033C107.132 256.995 107.367 257.023 107.569 257.117C107.77 257.207 107.931 257.351 108.054 257.551C108.181 257.75 108.263 257.986 108.302 258.258L108.635 260.629L107.9 260.732L107.594 258.556C107.547 258.223 107.455 257.986 107.318 257.845C107.184 257.699 106.997 257.643 106.757 257.677C106.489 257.714 106.286 257.83 106.148 258.024C106.01 258.213 105.963 258.469 106.009 258.793L106.313 260.956L105.578 261.059Z" fill="#333333"/>
<rect x="153.577" y="249.769" width="4" height="4" rx="2" transform="rotate(-8 153.577 249.769)" fill="#D5D6D5"/>
<path d="M163.423 252.929L162.732 248.007L164.569 247.749C165.132 247.67 165.59 247.745 165.943 247.973C166.295 248.197 166.505 248.549 166.572 249.03C166.617 249.349 166.584 249.636 166.474 249.892C166.363 250.143 166.183 250.35 165.932 250.512C165.686 250.67 165.375 250.774 165.001 250.827L163.913 250.98L164.172 252.824L163.423 252.929ZM163.817 250.301L164.885 250.151C165.222 250.103 165.469 249.996 165.624 249.828C165.779 249.655 165.836 249.426 165.796 249.139C165.756 248.857 165.639 248.659 165.444 248.545C165.248 248.427 164.982 248.391 164.644 248.438L163.577 248.588L163.817 250.301ZM167.807 252.313L167.289 248.625L167.961 248.531L168.126 249.504L168.061 249.492C168.065 249.152 168.133 248.895 168.264 248.721C168.4 248.547 168.599 248.441 168.862 248.404L169.216 248.354L169.309 249.013L168.955 249.063C168.77 249.089 168.62 249.14 168.503 249.218C168.387 249.296 168.305 249.401 168.258 249.535C168.216 249.668 168.208 249.834 168.236 250.033L168.542 252.21L167.807 252.313ZM171.753 251.843C171.392 251.894 171.069 251.859 170.784 251.739C170.503 251.618 170.271 251.422 170.086 251.151C169.907 250.88 169.79 250.55 169.735 250.162C169.681 249.774 169.703 249.426 169.801 249.12C169.903 248.809 170.073 248.557 170.31 248.363C170.546 248.165 170.839 248.041 171.19 247.992C171.523 247.945 171.828 247.983 172.104 248.104C172.379 248.221 172.607 248.415 172.787 248.687C172.971 248.958 173.092 249.299 173.15 249.71L173.176 249.897L170.528 250.269C170.597 250.627 170.73 250.884 170.926 251.041C171.127 251.196 171.375 251.253 171.671 251.211C171.888 251.181 172.061 251.105 172.19 250.983C172.319 250.861 172.4 250.711 172.431 250.532L173.2 250.473C173.151 250.829 172.999 251.133 172.742 251.386C172.489 251.634 172.16 251.786 171.753 251.843ZM170.45 249.715L172.322 249.452C172.252 249.127 172.124 248.898 171.935 248.764C171.751 248.63 171.532 248.58 171.278 248.616C171.015 248.653 170.809 248.767 170.662 248.957C170.518 249.142 170.447 249.395 170.45 249.715ZM174.977 251.305L173.114 247.807L173.897 247.696L175.315 250.494L175.908 247.414L176.698 247.303L175.864 251.181L174.977 251.305ZM177.776 250.912L177.258 247.224L177.993 247.121L178.511 250.809L177.776 250.912ZM177.169 246.692L177.066 245.958L177.828 245.85L177.931 246.585L177.169 246.692ZM180.977 250.547C180.626 250.596 180.308 250.561 180.022 250.441C179.737 250.321 179.502 250.125 179.318 249.854C179.133 249.583 179.014 249.253 178.959 248.865C178.904 248.472 178.928 248.123 179.031 247.816C179.134 247.509 179.306 247.259 179.548 247.065C179.788 246.866 180.084 246.742 180.435 246.693C180.787 246.643 181.105 246.681 181.392 246.806C181.677 246.926 181.912 247.119 182.095 247.386C182.279 247.652 182.398 247.981 182.453 248.374C182.508 248.762 182.484 249.112 182.381 249.423C182.279 249.735 182.107 249.987 181.866 250.182C181.625 250.376 181.328 250.498 180.977 250.547ZM180.888 249.909C181.202 249.865 181.428 249.718 181.568 249.467C181.706 249.212 181.747 248.884 181.691 248.481C181.634 248.079 181.504 247.777 181.302 247.575C181.098 247.368 180.839 247.286 180.525 247.33C180.215 247.374 179.989 247.524 179.846 247.779C179.707 248.03 179.665 248.356 179.722 248.758C179.779 249.16 179.908 249.465 180.112 249.672C180.319 249.874 180.578 249.953 180.888 249.909ZM184.645 250.031C184.275 250.083 183.962 250.002 183.706 249.789C183.454 249.57 183.297 249.241 183.235 248.802L182.902 246.431L183.637 246.328L183.944 248.511C183.99 248.844 184.083 249.081 184.22 249.222C184.358 249.363 184.544 249.416 184.78 249.383C185.048 249.346 185.244 249.231 185.368 249.039C185.496 248.842 185.538 248.586 185.493 248.272L185.189 246.109L185.924 246.006L186.443 249.694L185.756 249.79L185.607 248.829L185.717 248.856C185.698 249.188 185.596 249.457 185.413 249.662C185.229 249.862 184.973 249.985 184.645 250.031ZM188.812 249.446C188.466 249.494 188.165 249.483 187.909 249.41C187.659 249.337 187.456 249.217 187.3 249.05C187.144 248.879 187.04 248.672 186.987 248.43L187.738 248.289C187.803 248.487 187.914 248.637 188.069 248.737C188.225 248.838 188.444 248.868 188.726 248.829C188.957 248.796 189.134 248.734 189.258 248.641C189.381 248.548 189.432 248.421 189.409 248.259C189.397 248.171 189.363 248.101 189.308 248.047C189.258 247.988 189.167 247.947 189.036 247.923C188.905 247.894 188.714 247.876 188.463 247.869C188.089 247.851 187.791 247.81 187.57 247.747C187.349 247.684 187.184 247.587 187.076 247.456C186.968 247.325 186.9 247.158 186.872 246.955C186.824 246.617 186.91 246.325 187.13 246.077C187.354 245.829 187.704 245.671 188.18 245.604C188.499 245.559 188.775 245.577 189.008 245.658C189.24 245.733 189.429 245.855 189.575 246.023C189.725 246.186 189.833 246.378 189.897 246.6L189.147 246.748C189.106 246.622 189.044 246.517 188.962 246.435C188.883 246.347 188.785 246.285 188.667 246.25C188.548 246.21 188.413 246.201 188.26 246.222C188.025 246.255 187.855 246.326 187.753 246.435C187.65 246.544 187.609 246.672 187.63 246.82C187.646 246.931 187.684 247.017 187.744 247.079C187.81 247.141 187.906 247.186 188.032 247.216C188.158 247.24 188.323 247.255 188.526 247.259C188.919 247.27 189.231 247.309 189.461 247.375C189.692 247.437 189.86 247.531 189.968 247.658C190.075 247.784 190.143 247.946 190.17 248.145C190.203 248.376 190.166 248.582 190.059 248.762C189.952 248.941 189.792 249.091 189.578 249.211C189.363 249.326 189.108 249.404 188.812 249.446ZM192.816 248.798L192.124 243.877L193.15 243.732L195.18 247.568L196.075 243.321L197.101 243.177L197.793 248.099L197.044 248.204L196.537 244.599L195.719 248.383L194.887 248.5L193.058 245.088L193.564 248.693L192.816 248.798ZM200.334 247.826C199.982 247.876 199.664 247.84 199.379 247.72C199.093 247.6 198.858 247.405 198.674 247.134C198.49 246.863 198.37 246.533 198.316 246.145C198.261 245.752 198.285 245.402 198.388 245.096C198.491 244.789 198.663 244.539 198.904 244.345C199.145 244.146 199.441 244.022 199.792 243.972C200.143 243.923 200.462 243.961 200.748 244.085C201.033 244.206 201.268 244.399 201.452 244.665C201.635 244.932 201.754 245.261 201.81 245.654C201.864 246.042 201.84 246.392 201.738 246.703C201.636 247.014 201.464 247.267 201.222 247.461C200.981 247.655 200.685 247.777 200.334 247.826ZM200.244 247.189C200.558 247.145 200.785 246.997 200.924 246.747C201.063 246.492 201.104 246.163 201.047 245.761C200.991 245.359 200.861 245.057 200.658 244.854C200.455 244.647 200.196 244.566 199.882 244.61C199.572 244.654 199.346 244.803 199.202 245.059C199.063 245.309 199.022 245.636 199.078 246.038C199.135 246.44 199.265 246.744 199.468 246.951C199.676 247.153 199.934 247.232 200.244 247.189ZM202.777 247.398L202.258 243.711L202.931 243.616L203.097 244.596L203 244.561C203.008 244.314 203.059 244.109 203.154 243.945C203.249 243.781 203.374 243.653 203.531 243.56C203.687 243.463 203.862 243.4 204.056 243.373C204.333 243.334 204.571 243.364 204.768 243.464C204.97 243.558 205.132 243.705 205.255 243.904C205.381 244.099 205.463 244.33 205.5 244.598L205.834 246.969L205.099 247.072L204.797 244.923C204.766 244.706 204.718 244.527 204.651 244.385C204.584 244.244 204.491 244.141 204.374 244.078C204.257 244.014 204.113 243.994 203.942 244.018C203.683 244.055 203.485 244.17 203.347 244.363C203.209 244.557 203.163 244.818 203.209 245.146L203.511 247.295L202.777 247.398ZM207.988 246.666C207.636 246.715 207.366 246.671 207.177 246.532C206.988 246.394 206.869 246.154 206.821 245.812L206.322 242.256L207.056 242.153L207.548 245.653C207.572 245.824 207.626 245.937 207.709 245.991C207.792 246.045 207.91 246.062 208.062 246.04L208.589 245.966L208.674 246.57L207.988 246.666ZM205.967 243.804L205.882 243.201L208.156 242.882L208.24 243.485L205.967 243.804ZM209.341 246.476L208.65 241.554L209.384 241.451L209.675 243.517L209.583 243.515C209.595 243.302 209.648 243.122 209.74 242.977C209.832 242.828 209.955 242.709 210.107 242.622C210.26 242.534 210.433 242.477 210.628 242.45C210.896 242.412 211.13 242.44 211.332 242.534C211.533 242.624 211.695 242.768 211.817 242.968C211.944 243.167 212.027 243.403 212.065 243.675L212.398 246.046L211.664 246.149L211.358 243.973C211.311 243.64 211.219 243.403 211.081 243.262C210.947 243.116 210.76 243.06 210.52 243.094C210.252 243.131 210.049 243.247 209.912 243.441C209.773 243.63 209.727 243.886 209.772 244.21L210.076 246.372L209.341 246.476Z" fill="#333333"/>
</g>
<rect x="15.6223" y="62.1424" width="363" height="220" rx="11.5" transform="rotate(-8 15.6223 62.1424)" stroke="#DEDEDE"/>
</g>
<defs>
<filter id="filter0_d_192_67" x="-1.94238" y="-1.94217" width="425.215" height="303.508" filterUnits="userSpaceOnUse" color-interpolation-filters="sRGB">
<feFlood flood-opacity="0" result="BackgroundImageFix"/>
<feColorMatrix in="SourceAlpha" type="matrix" values="0 0 0 0 0 0 0 0 0 0 0 0 0 0 0 0 0 0 127 0" result="hardAlpha"/>
<feMorphology radius="1" operator="dilate" in="SourceAlpha" result="effect1_dropShadow_192_67"/>
<feOffset dy="4"/>
<feGaussianBlur stdDeviation="8"/>
<feComposite in2="hardAlpha" operator="out"/>
<feColorMatrix type="matrix" values="0 0 0 0 0.567007 0 0 0 0 0.567007 0 0 0 0 0.567007 0 0 0 0.25 0"/>
<feBlend mode="normal" in2="BackgroundImageFix" result="effect1_dropShadow_192_67"/>
<feBlend mode="normal" in="SourceGraphic" in2="effect1_dropShadow_192_67" result="shape"/>
</filter>
<linearGradient id="paint0_linear_192_67" x1="104.176" y1="207.23" x2="47.7311" y2="215.163" gradientUnits="userSpaceOnUse">
<stop stop-color="#2AB300"/>
<stop offset="1" stop-color="#72FF48"/>
</linearGradient>
<clipPath id="clip0_192_67">
<rect x="15.0576" y="61.7168" width="364" height="221" rx="12" transform="rotate(-8 15.0576 61.7168)" fill="white"/>
</clipPath>
</defs>
</svg>
